<svg xmlns="http://www.w3.org/2000/svg" xmlns:xlink="http://www.w3.org/1999/xlink" viewBox="0 0 500 500"><style>.B{fill:#45a1fb}.C{fill:#263238}.D{fill:#ebebeb}.E{fill:#c7c7c7}.F{fill:#dbdbdb}.G{fill:#455a64}.H{fill:#f7a9a0}.I{fill:#fff}.J{opacity:.1}.K{fill:#a6a6a6}.L{fill:#37474f}</style><path d="M331.74 298.61h88.24v122.11h-88.24z" class="D"/><path d="M327.47 294.08h96.79v4.53h-96.79z" class="F"/><path d="M424.26 294.08h30.44v4.53h-30.44z" class="D"/><path d="M419.98 298.61h29.9v122.11h-29.9z" class="F"/><g class="E"><path d="M410.5 355.14h-69.27V316h69.27zm-69-.25h68.77v-38.66h-68.79zm24.7-27.46h13.48v7.75H366.2z"/><path d="M383.79 334.72h-13.73v-6.83h13.73zm-13.48-.25h13.23v-6.33h-13.23zm40.19 69.83h-69.27v-39.16h69.27zm-69-.25h68.77v-38.66h-68.79zm24.7-27.46h13.48v7.75H366.2z"/><path d="M383.79 383.88h-13.73v-6.83h13.73zm-13.48-.25h13.23v-6.33h-13.23zM84.9 0h1v92.13h-1z"/></g><path d="m117.39 122.97-2.58 5.65H55.97l-2.57-5.65 25.06-17.34h13.87l25.06 17.34z" class="D"/><path d="m94.07 88.92-1.74 16.71H78.46l-1.74-16.71h17.35zm23.31 34.05-2.57 5.66H55.97l-2.57-5.66h63.98z" class="F"/><path d="M153.58 0h1v73.88h-1z" class="E"/><path d="m186.08 104.72-2.58 5.66h-58.84l-2.57-5.66 25.06-17.34h13.87l25.06 17.34z" class="D"/><path d="m162.76 70.67-1.74 16.71h-13.87l-1.74-16.71h17.35zm23.31 34.05-2.57 5.66h-58.84l-2.57-5.66h63.98z" class="F"/><path d="M81.27 147c-41.6 0-41.67 59.14 0 59.14s41.66-59.14 0-59.14z" class="D"/><path d="M106.56 182.14c-2.22 10.18-10.66 19-25.3 19-34.57 0-34.52-49.09 0-49.09h.68c-32.49.59-32.33 47.08.64 47.08 13.42.02 21.42-7.76 23.98-16.99zm-25.05-23.61a1 1 0 0 1 1.08 1v1.64a15.55 15.55 0 0 1 8 2.88c.41.29.63.54.63 1a1.11 1.11 0 0 1-1.17 1 1.16 1.16 0 0 1-.81-.29 13.4 13.4 0 0 0-6.75-2.67v11.52c6.84 1.32 9.72 3.67 9.72 7.7 0 4.37-4 7.46-9.63 7.62v3.21a1.08 1.08 0 0 1-2.16 0v-3.25a17.77 17.77 0 0 1-10.12-4 1.06 1.06 0 0 1-.5-.87 1.13 1.13 0 0 1 1.13-1 1.23 1.23 0 0 1 .81.29 15.15 15.15 0 0 0 8.78 3.69v-11.73c-6.75-1.36-9.54-3.62-9.54-7.74s4-7.33 9.45-7.45v-1.56a1.05 1.05 0 0 1 1.08-.99zm-1 15.64v-11.24c-4.36.09-7.24 2.47-7.24 5.44.01 2.8 1.45 4.53 7.25 5.8zm2 2.51v11.37c4.5-.08 7.43-2.47 7.43-5.6-.01-2.84-1.59-4.57-7.44-5.77zm206.82 83.75c-25.87 19.69 3.25 58 29.16 38.31s-3.26-58.03-29.16-38.31z" class="F"/><path d="M291.76 258.58c-24.66 18.77 4.47 57.11 29.16 38.31s-4.48-57.1-29.16-38.31z" class="D"/><path d="M324.06 269.92c3.7 7.59 3.05 17.11-5.62 23.72-20.49 15.6-44.67-16.22-24.21-31.8l.41-.29c-19 15 4.06 45.08 23.59 30.2 7.97-6.06 8.88-14.75 5.83-21.83zM301.35 264a.8.8 0 0 1 1 .47l.47 1.26a10.84 10.84 0 0 1 6.41.12.93.93 0 0 1 .71.56.85.85 0 0 1-.53 1.08.81.81 0 0 1-.65 0 9.48 9.48 0 0 0-5.47-.28l3.27 8.79c5.15-.77 7.83.27 9 3.35 1.24 3.33-.68 6.73-4.56 8.31l.91 2.45a.801.801 0 1 1-1.5.56l-.93-2.48a12.57 12.57 0 0 1-8.2-.42.85.85 0 0 1-.59-.53.87.87 0 0 1 .49-1.07.82.82 0 0 1 .65 0 10.83 10.83 0 0 0 7.19.58l-3.33-9c-5.1.72-7.69-.28-8.85-3.43s.68-6.62 4.48-8.13l-.45-1.2a.81.81 0 0 1 .48-.99zm3.75 12.19-3.19-8.57c-3 1.19-4.36 3.76-3.52 6s2.29 3.07 6.71 2.54zm2.09 1.4 3.23 8.67c3.11-1.23 4.48-3.81 3.59-6.2-.81-2.19-2.4-3.06-6.82-2.5zM66.06 237.91c30.28 5.43 22.28 50.29-8.05 44.84s-22.28-50.28 8.05-44.84z" class="F"/><path d="M63.22 237.4c28.85 5.18 20.85 50-8 44.84s-20.91-50.03 8-44.84z" class="D"/><path d="M40.89 260.88c.16 8 4.81 15.73 15 17.55 24 4.31 30.62-32.92 6.68-37.22l-.48-.07c22.46 4.49 16 39.72-6.84 35.62-9.36-1.68-13.86-8.57-14.36-15.88zm20-16.4a.78.78 0 0 1 .61.89l-.24 1.25a10.31 10.31 0 0 1 5.15 3.21.88.88 0 0 1 .3.8.81.81 0 0 1-1 .63.85.85 0 0 1-.52-.32 9 9 0 0 0-4.3-2.9l-1.62 8.73c4.55 1.88 6.22 4 5.65 7.08-.62 3.31-3.83 5.13-7.75 4.53l-.45 2.43a.763.763 0 1 1-1.5-.28l.46-2.46a11.88 11.88 0 0 1-6.45-4.33.79.79 0 0 1-.22-.72.82.82 0 0 1 .92-.63.8.8 0 0 1 .52.32 10.26 10.26 0 0 0 5.55 4l1.66-8.89c-4.49-1.9-6.1-4-5.52-7.09s3.78-5 7.6-4.42l.22-1.19a.78.78 0 0 1 .93-.64zM58 256.2l1.59-8.51c-3-.5-5.37.94-5.79 3.18s.35 3.62 4.2 5.33zm1 2.16L57.41 267c3.13.51 5.49-.92 5.93-3.29.41-2.18-.44-3.71-4.34-5.35z" class="F"/><path d="m44.66 420.76 51.33-.25 51.34-.08 102.67-.17 102.67.17 51.34.08 51.33.25-51.33.24-51.34.09-102.67.17-102.67-.17-51.34-.09-51.33-.24z" class="C"/><ellipse cx="250" cy="455.47" rx="173.02" ry="16.97" class="D"/><path d="M201.36 38.7h257.79v193.19H201.36z" class="I"/><path d="m459.15 231.89-257.79.27h-.27v-.27L201 38.7v-.37h.37l257.79.14h.23v.23zm0 0-.23-193.19.23.23-257.79.15.37-.38-.1 193.19-.27-.26z" class="D"/><g class="E"><path d="m227.66 125.74 102.6-.17 102.83.17-102.83.18z"/><use xlink:href="#B"/><use xlink:href="#B" y="5.46"/><use xlink:href="#C"/><use xlink:href="#B" y="16.37"/><use xlink:href="#B" y="21.8"/><use xlink:href="#C" y="16.37"/><path d="m227.66 163.94 89.11-.17 116.32.17-116.32.18z"/><use xlink:href="#B" y="38.2"/><use xlink:href="#C" y="32.74"/><path d="m227.66 180.31 89.11-.17 116.32.17-116.32.18z"/><use xlink:href="#B" y="54.57"/><use xlink:href="#B" y="60.03"/><use xlink:href="#C" y="54.57"/><use xlink:href="#B" y="70.94"/></g><path d="M240.72 186.64h9.2v21.89h-9.2zm16.65 3.03h9.2v18.85h-9.2zm16.65-7.11h9.2v25.97h-9.2zm16.64-2.07h9.2v28.03h-9.2zm16.65-11.09h9.2v39.13h-9.2zm16.65 3.2h9.2v35.93h-9.2zm16.65-7.05h9.2v42.97h-9.2zm16.65-7.24h9.2v50.22h-9.2zm16.65.3h9.2v49.92h-9.2zm16.65 1.93h9.2v47.98h-9.2zm16.64-9.74h9.2v57.73h-9.2z" class="D"/><path d="m232.5 121.91.37 21.65.25 21.65.26 43.29-.88-.66h43.34l43.34.08 64.9.21 49 .39-49 .4-64.9.21-43.34.08H231.62v-.66l.26-43.29.25-21.65z" class="E"/><path d="M201.36 31.57h257.79v7.13H201.36z" class="G"/><path d="M207 35.14a1.77 1.77 0 1 1-1.77-1.77 1.77 1.77 0 0 1 1.77 1.77Z" class="E"/><path d="M214.25 35.14a1.77 1.77 0 1 1-1.77-1.77 1.77 1.77 0 0 1 1.77 1.77z" class="I"/><path d="M221.47 35.14a1.77 1.77 0 1 1-1.77-1.77 1.77 1.77 0 0 1 1.77 1.77zm6.19 24.82h99.63v50.6h-99.63z" class="B"/><path d="M237 72.08a.43.43 0 0 1 .62-.06 2.82 2.82 0 0 0 1.65.66 1.87 1.87 0 0 0 1.08-.32.76.76 0 0 0 .37-.62.48.48 0 0 0-.08-.27.71.71 0 0 0-.26-.26 3.4 3.4 0 0 0-1.18-.41 5.15 5.15 0 0 1-1.11-.33 1.89 1.89 0 0 1-.8-.68 1.27 1.27 0 0 1-.2-.7 1.6 1.6 0 0 1 .69-1.26 2.58 2.58 0 0 1 1.49-.46 3.41 3.41 0 0 1 1.88.69.44.44 0 0 1 .12.61.43.43 0 0 1-.61.13 2.52 2.52 0 0 0-1.39-.55 1.66 1.66 0 0 0-1 .29.72.72 0 0 0-.33.55.45.45 0 0 0 .06.24.81.81 0 0 0 .23.22 2.86 2.86 0 0 0 1.08.38 5.55 5.55 0 0 1 1.19.36 2.1 2.1 0 0 1 .86.72 1.38 1.38 0 0 1 .21.73 1.66 1.66 0 0 1-.75 1.34 2.68 2.68 0 0 1-1.59.49 3.75 3.75 0 0 1-2.2-.86.46.46 0 0 1-.03-.63zm9.43-.65v1.69a.46.46 0 0 1-.45.46.47.47 0 0 1-.45-.37 2 2 0 0 1-2.61-.26 2.25 2.25 0 0 1 0-3 2 2 0 0 1 1.46-.64 1.93 1.93 0 0 1 1.15.38.46.46 0 0 1 .45-.38.45.45 0 0 1 .45.46zm-.91 0a1.31 1.31 0 0 0-.33-.89 1.08 1.08 0 0 0-.81-.35 1 1 0 0 0-.8.35 1.31 1.31 0 0 0-.32.89 1.34 1.34 0 0 0 .32.89 1.1 1.1 0 0 0 .8.33 1.14 1.14 0 0 0 .81-.33 1.35 1.35 0 0 0 .33-.89zm3.26-3.88a.47.47 0 0 1 .48.47v5.08a.48.48 0 1 1-.95 0V68a.47.47 0 0 1 .47-.45zm1.7 3.87a2.13 2.13 0 0 1 2.1-2.15 2.06 2.06 0 0 1 2.08 2 .22.22 0 0 1 0 .08.42.42 0 0 1-.45.34h-2.74a1.09 1.09 0 0 0 .3.57 1.32 1.32 0 0 0 .82.39 1.43 1.43 0 0 0 .9-.22.48.48 0 0 1 .64 0 .39.39 0 0 1 0 .56 2.17 2.17 0 0 1-3.64-1.59zm.94-.42h2.44a1.42 1.42 0 0 0-1.28-.91 1.2 1.2 0 0 0-1.16.91zm4.4 1.34a.46.46 0 0 1 .65-.07 1.56 1.56 0 0 0 .95.38 1.08 1.08 0 0 0 .58-.16.36.36 0 0 0 .16-.26.1.1 0 0 0 0-.08s0-.06-.11-.11a2.14 2.14 0 0 0-.69-.24 3.62 3.62 0 0 1-.75-.22 1.42 1.42 0 0 1-.59-.5 1 1 0 0 1-.15-.55 1.21 1.21 0 0 1 .51-.94 1.82 1.82 0 0 1 1.06-.32 2.17 2.17 0 0 1 1.29.47.48.48 0 0 1 .14.64.45.45 0 0 1-.64.12 1.45 1.45 0 0 0-.79-.32.89.89 0 0 0-.52.16.24.24 0 0 0-.13.19.13.13 0 0 0 0 .07.22.22 0 0 0 .1.09 1.8 1.8 0 0 0 .63.21 2.73 2.73 0 0 1 .81.25 1.33 1.33 0 0 1 .61.5 1.17 1.17 0 0 1 .16.57 1.24 1.24 0 0 1-.54 1 1.93 1.93 0 0 1-1.12.35 2.53 2.53 0 0 1-1.54-.6.47.47 0 0 1-.08-.63zm10.89-.89v1.6a2.07 2.07 0 0 1-2.07 2.07 1.93 1.93 0 0 1-.9-.22.45.45 0 0 1-.21-.62.46.46 0 0 1 .62-.21 1.14 1.14 0 0 0 .49.12 1.16 1.16 0 0 0 1.13-.92 2 2 0 0 1-2.59-.31 2.18 2.18 0 0 1-.61-1.52 2.24 2.24 0 0 1 .61-1.53 2 2 0 0 1 2.62-.28.46.46 0 0 1 .91.09v1.72zm-.92 0a1.34 1.34 0 0 0-.33-.88 1.07 1.07 0 0 0-.82-.37 1 1 0 0 0-.79.37 1.29 1.29 0 0 0 0 1.77 1.05 1.05 0 0 0 .79.35 1.09 1.09 0 0 0 .82-.35 1.32 1.32 0 0 0 .33-.9zm5.41-1.73a.46.46 0 0 1-.46.46.77.77 0 0 0-.51.17 1.21 1.21 0 0 0-.4.41 2.37 2.37 0 0 0-.35.72v1.64a.48.48 0 0 1-.48.46.46.46 0 0 1-.45-.46v-3.4a.44.44 0 0 1 .45-.44.46.46 0 0 1 .48.44v.07a1 1 0 0 1 .18-.18 1.85 1.85 0 0 1 1.08-.33.44.44 0 0 1 .46.44zm1.31 3.28a2.16 2.16 0 0 1-.59-1.52 2.23 2.23 0 0 1 .59-1.51 2 2 0 0 1 1.48-.65 1.91 1.91 0 0 1 1.44.65 2.16 2.16 0 0 1 .61 1.51 2.1 2.1 0 0 1-.61 1.52 1.91 1.91 0 0 1-1.44.65 2 2 0 0 1-1.48-.65zm.35-1.52a1.37 1.37 0 0 0 .31.91 1.14 1.14 0 0 0 .82.32 1.13 1.13 0 0 0 .8-.32 1.41 1.41 0 0 0 0-1.81 1.19 1.19 0 0 0-1.62 0 1.38 1.38 0 0 0-.31.85zM282.7 70l-1.42 3.34V73.46a.1.1 0 0 1-.05 0h-.4a.25.25 0 0 1-.08-.05h-.05l-.05-.05v-.07l-.63-1.49-.61 1.49a.43.43 0 0 0 0 .07l-.06.05h-.06l-.07.05h-.32s-.06 0-.07-.05v-.05l-.05-.07L277 70a.46.46 0 0 1 .25-.6.43.43 0 0 1 .57.26l1 2.32.6-1.44a.47.47 0 0 1 .42-.28.45.45 0 0 1 .42.28l.61 1.44 1-2.32a.44.44 0 0 1 .58-.26.46.46 0 0 1 .25.6zm3.82-.26a.49.49 0 0 1-.48.48h-.22v2.4a.47.47 0 0 1 .47.48.47.47 0 0 1-.47.48 1 1 0 0 1-1-1v-2.4h-.25a.48.48 0 0 1-.47-.48.46.46 0 0 1 .47-.47h.25V68a.47.47 0 0 1 .49-.47.46.46 0 0 1 .47.47v1.25h.22a.48.48 0 0 1 .52.49zm2.29 3.36a.47.47 0 0 1-.48.48.49.49 0 0 1-.46-.36.37.37 0 0 1 0-.12V68a.47.47 0 0 1 .48-.47.47.47 0 0 1 .48.47v1.5a2 2 0 0 1 .92-.25 1.88 1.88 0 0 1 1.88 1.89v1.96a.47.47 0 0 1-.47.48.47.47 0 0 1-.48-.48v-1.94a.94.94 0 0 0-.93-.94 1 1 0 0 0-.92.94zm-8.32 20.95a1.16 1.16 0 0 1-1.18 1.15h-.21v1.6a1.16 1.16 0 1 1-2.32 0v-1.6h-6.63a1 1 0 0 1-.72-.25 1.12 1.12 0 0 1-.19-1.62l7.76-9.69h.05a.23.23 0 0 0 .06-.09.21.21 0 0 0 .1-.06l.09-.06a.21.21 0 0 1 .12 0s.05-.07.09-.07h.12a.13.13 0 0 0 .09 0h.36a.18.18 0 0 0 .1 0H278.39l.11.09.1.06h.06l.08.09a.5.5 0 0 0 .07.08l.08.11a.15.15 0 0 0 0 .08 1 1 0 0 1 0 .13v.08a.25.25 0 0 1 0 .13v8.68h.21a1.17 1.17 0 0 1 1.39 1.16zm-3.71-6.37-4.19 5.21h4.19zM291 89a5.13 5.13 0 0 1 1.54 3.71 5.26 5.26 0 0 1-1.54 3.72 5.15 5.15 0 0 1-3.71 1.57h-.05a5.1 5.1 0 0 1-3.66-1.53 1.17 1.17 0 0 1 0-1.69 1.21 1.21 0 0 1 1.69 0 2.73 2.73 0 0 0 2 .84 2.78 2.78 0 0 0 2-.84 2.84 2.84 0 0 0 .84-2 2.83 2.83 0 0 0-2.84-2.84 2.77 2.77 0 0 0-2 .82 1.21 1.21 0 0 1-1.69 0l-.23-.28v-.06a.15.15 0 0 0 0-.1 1.3 1.3 0 0 0 0-.15 1.08 1.08 0 0 1 0-.36l.64-5.46a1.26 1.26 0 0 1 .52-.84h.15a1.12 1.12 0 0 1 .55-.13h6.21a1.19 1.19 0 1 1 0 2.38h-5.18l-.25 2.08a5.63 5.63 0 0 1 1.41-.19A5.16 5.16 0 0 1 291 89zm4.73-2.14a3.56 3.56 0 0 1 3.5-3.77 3.51 3.51 0 0 1 3.45 3.73 3.56 3.56 0 0 1-3.5 3.77 3.52 3.52 0 0 1-3.45-3.73zm5.08 0c0-1.18-.68-2.15-1.63-2.15s-1.58 1-1.58 2.11c0 1.2.68 2.15 1.63 2.15s1.58-.97 1.58-2.11zm-2.66 9.84 9.67-13.21a.81.81 0 0 1 .72-.38.83.83 0 0 1 .84.83 1 1 0 0 1-.19.54l-9.67 13.21a.87.87 0 0 1-.74.38.81.81 0 0 1-.82-.82 1 1 0 0 1 .19-.55zm6.49-2.3a3.49 3.49 0 1 1 6.95 0 3.57 3.57 0 0 1-3.5 3.77 3.52 3.52 0 0 1-3.45-3.77zm5.07 0c0-1.18-.67-2.15-1.62-2.15s-1.58 1-1.58 2.11c0 1.2.68 2.15 1.63 2.15s1.57-.97 1.57-2.11z" class="L"/><path d="M261.93 91a12.53 12.53 0 1 1-1.66-6.23 12.54 12.54 0 0 1 1.66 6.23Z" class="G"/><path d="M261.93 91a12.54 12.54 0 0 1-8.05 11.71L249.39 91V78.46A12.53 12.53 0 0 1 261.93 91Z" class="I"/><path d="M258.06 91a8.67 8.67 0 1 1-8.67-8.67 8.67 8.67 0 0 1 8.67 8.67Z" class="B"/><g class="L"><path d="M298.29 70.5h3.46v3.08h-3.46zM296.77 70.5h6.51l-3.26-3.44-3.25 3.44z"/></g><path d="M333.22 59.96h99.63v50.73h-99.63z" class="D"/><path d="M345 65.36a.45.45 0 0 1 .46.46v.24a3.88 3.88 0 0 1 1.67.59.58.58 0 0 1 .32.52.59.59 0 0 1-.6.59.55.55 0 0 1-.32-.1 4.34 4.34 0 0 0-1.11-.47v2.07c1.63.41 2.33 1.06 2.33 2.22s-.92 2-2.29 2.1v.64a.46.46 0 0 1-.46.47.48.48 0 0 1-.48-.47v-.67a4.5 4.5 0 0 1-2.2-.84.57.57 0 0 1-.3-.51.6.6 0 0 1 .95-.48 3.81 3.81 0 0 0 1.6.73v-2.13c-1.58-.41-2.31-1-2.31-2.21a2.17 2.17 0 0 1 2.26-2.06v-.23a.47.47 0 0 1 .48-.46zm-.44 3.64v-1.9c-.69.06-1 .43-1 .9s.17.76 1 1zm.85 1.5v2c.69-.08 1.06-.42 1.06-.94s-.23-.77-1.06-1.03zM357 73a.59.59 0 0 1-.59.6h-3.84a.59.59 0 0 1-.44-.2.6.6 0 0 1 0-.84l3.19-2.88a1.37 1.37 0 0 0 .45-1 1.4 1.4 0 0 0-.35-.93 1.36 1.36 0 0 0-1-.46 1.4 1.4 0 0 0-.93.36l-.34.3a.59.59 0 0 1-.84 0 .6.6 0 0 1 .05-.84l.33-.3a2.5 2.5 0 0 1 1.73-.67 2.6 2.6 0 0 1 1.92.85 2.55 2.55 0 0 1 .67 1.73 2.6 2.6 0 0 1-.85 1.92l-2 1.84h2.3a.59.59 0 0 1 .54.52zm2.44-.95a.8.8 0 1 1 0 1.6.8.8 0 0 1 0-1.6zm3.2-5.42V73a.6.6 0 0 1-.61.6.59.59 0 0 1-.59-.6v-5.31l-.43.24a.5.5 0 0 1-.3.09.6.6 0 0 1-.51-.3.58.58 0 0 1 .2-.81l1.32-.79h.4a.12.12 0 0 1 .07 0h.07v.06c0 .06 0 0 0 0a.11.11 0 0 0 0 .08zm1.36 3.18a4.66 4.66 0 0 1 .73-2.58 2.41 2.41 0 0 1 2-1.19 2.45 2.45 0 0 1 2 1.19 5 5 0 0 1 0 5.15 2.49 2.49 0 0 1-2 1.2 2.45 2.45 0 0 1-2-1.2 4.65 4.65 0 0 1-.73-2.57zm4.25 0a3.49 3.49 0 0 0-.52-1.92 1.25 1.25 0 0 0-1-.66 1.3 1.3 0 0 0-1 .66 3.58 3.58 0 0 0-.52 1.92 3.53 3.53 0 0 0 .52 1.9 1.3 1.3 0 0 0 1 .67 1.24 1.24 0 0 0 1-.67 3.45 3.45 0 0 0 .53-1.9zm8.17 3.19a.59.59 0 0 1-.59.6H372a.59.59 0 0 1-.44-.2.6.6 0 0 1 0-.84l3.19-2.88a1.37 1.37 0 0 0 .45-1 1.4 1.4 0 0 0-.35-.93 1.36 1.36 0 0 0-1-.46 1.4 1.4 0 0 0-.93.36l-.34.3a.59.59 0 0 1-.84 0 .6.6 0 0 1 0-.84l.33-.3a2.5 2.5 0 0 1 1.73-.67 2.6 2.6 0 0 1 1.92.85 2.55 2.55 0 0 1 .67 1.73 2.6 2.6 0 0 1-.85 1.92l-2 1.84h2.3a.59.59 0 0 1 .58.52zm1.58 1.55a.94.94 0 0 0 .73-1 .8.8 0 0 1-.62-.74v-.08a.7.7 0 0 1 .74-.72c.48 0 .77.36.77.94v.12a2.11 2.11 0 0 1-.53 1.57 1.64 1.64 0 0 1-1 .47.3.3 0 0 1-.08-.59zm7.42-3.55a2.57 2.57 0 1 1-4-2.14 1.73 1.73 0 0 1-.36-1.07 1.78 1.78 0 0 1 3.56 0 1.73 1.73 0 0 1-.36 1.07 2.58 2.58 0 0 1 1.16 2.14zm-1.17 0a1.4 1.4 0 0 0-1.39-1.4 1.43 1.43 0 0 0-1.41 1.4 1.41 1.41 0 0 0 1.41 1.39 1.39 1.39 0 0 0 1.39-1.39zm-2-3.21a.6.6 0 1 0 1.2 0 .6.6 0 0 0-1.2 0zM392.41 71a2.62 2.62 0 0 1-5.22.27v-.62a6.25 6.25 0 0 1 .38-2.2 3.82 3.82 0 0 1 1.39-1.85 3.07 3.07 0 0 1 1.61-.5.6.6 0 0 1 .63.57.62.62 0 0 1-.58.62 1.92 1.92 0 0 0-1 .31 2.23 2.23 0 0 0-.67.75 1.47 1.47 0 0 0-.14.28 2.5 2.5 0 0 1 1-.22 2.62 2.62 0 0 1 2.6 2.59zm-1.2 0a1.42 1.42 0 1 0-2.83 0 1.42 1.42 0 0 0 2.83 0zM345 91a.46.46 0 0 1 .46.46v.24a4 4 0 0 1 1.67.59.58.58 0 0 1 .32.52.59.59 0 0 1-.6.59.62.62 0 0 1-.32-.09 4.06 4.06 0 0 0-1.11-.48v2.07c1.63.41 2.33 1.07 2.33 2.22s-.92 2-2.29 2.1v.64a.46.46 0 0 1-.46.47.48.48 0 0 1-.48-.47v-.66a4.71 4.71 0 0 1-2.2-.84.59.59 0 0 1 .3-1.11.53.53 0 0 1 .35.12 3.92 3.92 0 0 0 1.6.72V96c-1.58-.41-2.31-1-2.31-2.22a2.17 2.17 0 0 1 2.26-2.06v-.23A.48.48 0 0 1 345 91zm-.43 3.67v-1.9c-.69.06-1 .43-1 .9s.16.72.99.99zm.85 1.5v2c.69-.07 1.06-.42 1.06-.94s-.24-.81-1.07-1.07zm8.92-3.91v6.36a.6.6 0 0 1-.6.59.59.59 0 0 1-.6-.59v-5.3l-.43.25a.54.54 0 0 1-.3.08.61.61 0 0 1-.31-1.11l1.32-.78h.53a.11.11 0 0 1 .05 0 .11.11 0 0 1 0 .05.09.09 0 0 1 0 .06.43.43 0 0 0 0 .05V92zm2.35 5.42a.82.82 0 0 1 .81.81.8.8 0 0 1-.81.79.79.79 0 0 1-.8-.79.81.81 0 0 1 .8-.81zm7.31-.47a.59.59 0 0 1-.6.59h-.11v.82a.6.6 0 0 1-1.19 0v-.82h-3.39a.49.49 0 0 1-.36-.13.57.57 0 0 1-.1-.83l4-5h.53l.05.05h.05v.07a.13.13 0 0 1 0 .07v4.38h.11a.644.644 0 0 1 1.01.8zM362.05 94l-2.14 2.66h2.14zm7.27.64a2.68 2.68 0 0 1 0 3.78 2.64 2.64 0 0 1-1.89.79 2.58 2.58 0 0 1-1.87-.79.59.59 0 0 1 0-.86.6.6 0 0 1 .86 0 1.4 1.4 0 0 0 1 .43 1.43 1.43 0 0 0 1-.43 1.47 1.47 0 0 0 .43-1 1.42 1.42 0 0 0-.43-1 1.4 1.4 0 0 0-1-.42 1.44 1.44 0 0 0-1 .42.6.6 0 0 1-.86 0 .81.81 0 0 1-.12-.14v-.08a.54.54 0 0 1 0-.18l.33-2.79a.64.64 0 0 1 .27-.43.64.64 0 0 1 .28-.06h3.18a.61.61 0 1 1 0 1.22h-2.65l-.14.9a3 3 0 0 1 .72-.09 2.63 2.63 0 0 1 1.89.73zm2.54.8a4.6 4.6 0 0 1 .73-2.57 2.27 2.27 0 0 1 4 0 4.6 4.6 0 0 1 .72 2.57 4.65 4.65 0 0 1-.72 2.57 2.27 2.27 0 0 1-4 0 4.65 4.65 0 0 1-.73-2.57zm4.26 0a3.6 3.6 0 0 0-.52-1.92 1.22 1.22 0 0 0-1-.65 1.28 1.28 0 0 0-1 .65 3.85 3.85 0 0 0 0 3.83 1.32 1.32 0 0 0 1 .66 1.26 1.26 0 0 0 1-.66 3.59 3.59 0 0 0 .52-1.91zm3.31 4.74a.94.94 0 0 0 .73-1 .8.8 0 0 1-.62-.73v-.09a.7.7 0 0 1 .74-.72c.48 0 .77.36.77 1v.11a2.13 2.13 0 0 1-.53 1.58 1.63 1.63 0 0 1-1 .46.3.3 0 0 1-.08-.59zm7.21-1.56a.58.58 0 0 1-.59.59h-3.83a.62.62 0 0 1-.45-.19.61.61 0 0 1 0-.85l3.23-2.88a1.34 1.34 0 0 0 .46-1 1.38 1.38 0 0 0-1.39-1.38 1.39 1.39 0 0 0-.94.35l-.33.3a.58.58 0 0 1-.84 0 .59.59 0 0 1 0-.84l.33-.3a2.57 2.57 0 0 1 1.74-.67 2.6 2.6 0 0 1 1.92.85 2.55 2.55 0 0 1 .66 1.73 2.59 2.59 0 0 1-.85 1.92l-2 1.84h2.29a.6.6 0 0 1 .59.53zm5.47-3.98a2.68 2.68 0 0 1 0 3.78 2.64 2.64 0 0 1-1.89.79 2.58 2.58 0 0 1-1.87-.79.59.59 0 0 1 0-.86.6.6 0 0 1 .86 0 1.4 1.4 0 0 0 1 .43 1.43 1.43 0 0 0 1-.43 1.51 1.51 0 0 0 .43-1 1.42 1.42 0 0 0-.43-1 1.4 1.4 0 0 0-1-.42 1.44 1.44 0 0 0-1 .42.6.6 0 0 1-.86 0 .81.81 0 0 1-.12-.14v-.08a.54.54 0 0 1 0-.18l.33-2.79a.64.64 0 0 1 .27-.43.64.64 0 0 1 .28-.06h3.18a.61.61 0 1 1 0 1.22h-2.65l-.14.9a3 3 0 0 1 .72-.09 2.63 2.63 0 0 1 1.89.73z" class="G"/><g class="K"><path d="M363.47 78.25a2 2 0 0 1 3.24-1.52.33.33 0 0 1 .06.43.32.32 0 0 1-.44.06 1.33 1.33 0 0 0-.86-.29 1.43 1.43 0 0 0-1 .38 1.32 1.32 0 0 0-.4.94 1.29 1.29 0 0 0 .4.94 1.39 1.39 0 0 0 1 .39 1.31 1.31 0 0 0 .86-.3.34.34 0 0 1 .44.06.32.32 0 0 1-.06.43 2 2 0 0 1-3.22-1.52zm5.33 1.94a1.13 1.13 0 0 1-1.13-1.12v-1.29a.29.29 0 0 1 .58 0v1.29a.54.54 0 0 0 .55.55.55.55 0 0 0 .56-.55v-1.29a.28.28 0 0 1 .28-.28.3.3 0 0 1 .29.28v1.29a1.13 1.13 0 0 1-1.13 1.12z"/><use xlink:href="#D"/><path d="M375.06 77.78a.3.3 0 0 1-.29.29.51.51 0 0 0-.32.1.88.88 0 0 0-.25.26 1.76 1.76 0 0 0-.22.45v1a.3.3 0 0 1-.3.28.29.29 0 0 1-.28-.28v-2.1a.29.29 0 0 1 .28-.28.3.3 0 0 1 .3.28.57.57 0 0 1 .11-.11 1.22 1.22 0 0 1 .68-.21.29.29 0 0 1 .29.32zm.24 1.07a1.34 1.34 0 0 1 1.32-1.35 1.29 1.29 0 0 1 1.3 1.25.26.26 0 0 1-.28.22h-1.71a.69.69 0 0 0 .18.36.84.84 0 0 0 .52.24.89.89 0 0 0 .56-.14.3.3 0 0 1 .4 0 .24.24 0 0 1 0 .35 1.35 1.35 0 0 1-1 .35 1.34 1.34 0 0 1-1.29-1.28zm.59-.27h1.53a.9.9 0 0 0-.8-.57.75.75 0 0 0-.73.57zm5.11.04v1.29a.28.28 0 0 1-.28.28.29.29 0 0 1-.28-.28v-1.29a.57.57 0 0 0-.57-.55.55.55 0 0 0-.54.55v1.29a.28.28 0 0 1-.28.23.29.29 0 0 1-.29-.28v-2.08a.29.29 0 0 1 .29-.28.28.28 0 0 1 .26.17 1 1 0 0 1 .57-.17 1.13 1.13 0 0 1 1.12 1.12zm2.29-.83a.3.3 0 0 1-.3.3h-.14v1.51a.3.3 0 1 1 0 .59.6.6 0 0 1-.6-.59v-1.51h-.15a.3.3 0 1 1 0-.59h.15v-.78a.3.3 0 0 1 .31-.3.29.29 0 0 1 .29.3v.78h.15a.3.3 0 0 1 .29.29zm3.88.94h-.67v1.17a.3.3 0 0 1-.59 0v-3.18a.29.29 0 0 1 .29-.3h1a1.16 1.16 0 1 1 0 2.31zm-.67-.6h.67a.56.56 0 1 0 0-1.11h-.67zm2.24.72a1.34 1.34 0 0 1 1.32-1.35 1.29 1.29 0 0 1 1.3 1.25v.07a.27.27 0 0 1-.29.22h-1.71a.82.82 0 0 0 1.26.46.32.32 0 0 1 .41 0 .25.25 0 0 1 0 .35 1.4 1.4 0 0 1-1 .35 1.34 1.34 0 0 1-1.29-1.35zm.59-.27h1.53a.89.89 0 0 0-.8-.57.76.76 0 0 0-.73.57z"/><use xlink:href="#D" x="21.07"/><path d="M395.05 76.82a.29.29 0 0 1-.29.3.29.29 0 0 1-.29-.3v-.11a.29.29 0 0 1 .29-.29.28.28 0 0 1 .29.29zm0 1v2.1a.28.28 0 0 1-.29.29.29.29 0 0 1-.29-.29V77.8a.29.29 0 0 1 .29-.3.29.29 0 0 1 .29.3zm1.18 1.98a1.36 1.36 0 0 1-.37-1 1.39 1.39 0 0 1 .37-.94 1.22 1.22 0 0 1 .93-.41 1.18 1.18 0 0 1 .9.41 1.34 1.34 0 0 1 .37.94 1.31 1.31 0 0 1-.37 1 1.21 1.21 0 0 1-.9.41 1.26 1.26 0 0 1-.93-.41zm.21-1a.84.84 0 0 0 .2.57.72.72 0 0 0 .52.2.7.7 0 0 0 .49-.2.87.87 0 0 0 0-1.13.74.74 0 0 0-.49-.2.76.76 0 0 0-.52.2.83.83 0 0 0-.2.61zm5.35 1.1a.292.292 0 0 1-.58.06 1.29 1.29 0 0 1-.73.23 1.35 1.35 0 0 1 0-2.69 1.28 1.28 0 0 1 .72.22v-1a.3.3 0 0 1 .59 0v2.14zm-1.31-1.81a.7.7 0 0 0-.51.22.77.77 0 0 0-.21.54.79.79 0 0 0 .21.54.7.7 0 0 0 1 0 .79.79 0 0 0 .21-.54.77.77 0 0 0-.21-.54.7.7 0 0 0-.49-.22zm-35.58 25.84h-.67v1.17a.29.29 0 0 1-.3.3.3.3 0 0 1-.3-.3v-3.18a.29.29 0 0 1 .3-.29h1a1.15 1.15 0 1 1 0 2.3zm-.67-.6h.67a.56.56 0 0 0 .56-.55.57.57 0 0 0-.56-.56h-.67zm4.15-.33a.29.29 0 0 1-.29.28.52.52 0 0 0-.32.11.63.63 0 0 0-.25.26 1.61 1.61 0 0 0-.22.45v1a.3.3 0 0 1-.3.29.29.29 0 0 1-.28-.29V103a.28.28 0 0 1 .28-.28.29.29 0 0 1 .3.28.57.57 0 0 1 .11-.11 1.15 1.15 0 0 1 .68-.21.28.28 0 0 1 .29.32zm.24 1.05a1.34 1.34 0 0 1 1.32-1.35 1.29 1.29 0 0 1 1.3 1.25.26.26 0 0 1-.28.22h-1.71a.62.62 0 0 0 .18.35.79.79 0 0 0 .52.24.88.88 0 0 0 .56-.13.31.31 0 0 1 .4 0 .24.24 0 0 1 0 .35 1.32 1.32 0 0 1-1 .36 1.35 1.35 0 0 1-1.29-1.29zm.59-.26h1.53a.87.87 0 0 0-.8-.57.75.75 0 0 0-.73.57zm4.88-.65-.89 2.09h-.28l-.87-2.09a.27.27 0 0 1 .15-.37.27.27 0 0 1 .36.15l.62 1.47.63-1.47a.27.27 0 0 1 .36-.15.28.28 0 0 1-.08.37zm1.59-1.14a.29.29 0 0 1-.29.3.3.3 0 0 1-.29-.3v-.11a.29.29 0 1 1 .58 0zm0 1v2.1a.28.28 0 0 1-.29.29.29.29 0 0 1-.29-.29V103a.29.29 0 0 1 .29-.3.28.28 0 0 1 .29.3zm1.17 2a1.37 1.37 0 0 1-.37-1 1.41 1.41 0 0 1 .37-1 1.29 1.29 0 0 1 .93-.41 1.19 1.19 0 0 1 .9.41 1.33 1.33 0 0 1 .38 1 1.3 1.3 0 0 1-.38 1 1.19 1.19 0 0 1-.9.41 1.29 1.29 0 0 1-.93-.41zm.22-1a.89.89 0 0 0 .19.57.75.75 0 0 0 .52.2.72.72 0 0 0 .5-.2.85.85 0 0 0 .21-.57.82.82 0 0 0-.21-.56.78.78 0 0 0-.5-.21.81.81 0 0 0-.52.21.86.86 0 0 0-.19.62zm3.93 1.4a1.13 1.13 0 0 1-1.12-1.12V103a.29.29 0 1 1 .58 0v1.29a.54.54 0 0 0 .54.55.55.55 0 0 0 .57-.55V103a.29.29 0 0 1 .28-.29.3.3 0 0 1 .29.29v1.29a1.14 1.14 0 0 1-1.14 1.11zm2.06-.77a.28.28 0 0 1 .41 0 1 1 0 0 0 .59.23.81.81 0 0 0 .37-.1.22.22 0 0 0 .09-.16.22.22 0 0 0-.07-.07 1.48 1.48 0 0 0-.43-.15 2.15 2.15 0 0 1-.47-.14.92.92 0 0 1-.37-.31.67.67 0 0 1-.09-.34.79.79 0 0 1 .31-.6 1.18 1.18 0 0 1 .67-.2 1.41 1.41 0 0 1 .81.3.3.3 0 0 1 .08.4.29.29 0 0 1-.4.08.88.88 0 0 0-.49-.21.61.61 0 0 0-.33.1.16.16 0 0 0-.08.13h.06a1 1 0 0 0 .39.13 1.94 1.94 0 0 1 .5.15.87.87 0 0 1 .39.32.75.75 0 0 1 .1.36.78.78 0 0 1-.34.62 1.19 1.19 0 0 1-.7.22 1.62 1.62 0 0 1-1-.37.29.29 0 0 1 0-.39zm5.72-.7h-.66v1.17a.3.3 0 0 1-.31.3.29.29 0 0 1-.29-.3v-3.18a.28.28 0 0 1 .29-.29h1a1.15 1.15 0 1 1 0 2.3zm-.66-.6h.66a.56.56 0 0 0 .56-.55.57.57 0 0 0-.56-.56h-.66zm2.23.72a1.34 1.34 0 0 1 1.32-1.35A1.29 1.29 0 0 1 393 104a.27.27 0 0 1-.29.22H391a.78.78 0 0 0 .18.35.82.82 0 0 0 .52.24.87.87 0 0 0 .56-.13.32.32 0 0 1 .41 0 .25.25 0 0 1 0 .35 1.37 1.37 0 0 1-2.29-1zm.59-.26h1.53a.86.86 0 0 0-.8-.57.76.76 0 0 0-.73.57zm4.43-.79a.28.28 0 0 1-.28.28.55.55 0 0 0-.33.11.67.67 0 0 0-.24.26 1.72 1.72 0 0 0-.23.45v1a.29.29 0 1 1-.58 0V103a.29.29 0 0 1 .58 0l.12-.11a1.15 1.15 0 0 1 .68-.21.27.27 0 0 1 .28.32zm1.3-1a.3.3 0 1 1-.59 0v-.11a.3.3 0 0 1 .59 0zm0 1v2.1a.3.3 0 0 1-.59 0V103a.3.3 0 1 1 .59 0zm1.17 2a1.37 1.37 0 0 1-.37-1 1.41 1.41 0 0 1 .37-1 1.26 1.26 0 0 1 .93-.41 1.21 1.21 0 0 1 .9.41 1.36 1.36 0 0 1 .37 1 1.33 1.33 0 0 1-.37 1 1.21 1.21 0 0 1-.9.41 1.26 1.26 0 0 1-.93-.41zm.21-1a.84.84 0 0 0 .2.57.72.72 0 0 0 .52.2.7.7 0 0 0 .49-.2.8.8 0 0 0 .21-.57.78.78 0 0 0-.21-.56.75.75 0 0 0-.49-.21.77.77 0 0 0-.52.21.82.82 0 0 0-.2.62zm5.35 1.11a.292.292 0 0 1-.58.06 1.29 1.29 0 0 1-.73.23 1.35 1.35 0 0 1 0-2.7 1.28 1.28 0 0 1 .72.23v-1a.3.3 0 0 1 .59 0v2.13zm-1.31-1.82a.72.72 0 0 0-.51.22.8.8 0 0 0-.21.55.77.77 0 0 0 .21.53.72.72 0 0 0 .51.22.7.7 0 0 0 .51-.22.77.77 0 0 0 .21-.53.8.8 0 0 0-.21-.55.7.7 0 0 0-.51-.22z"/></g><path d="m339.5 85.32 10.88-.12 10.89-.05 21.77-.08 21.77.08 10.88.05 10.88.12-10.88.12-10.88.04-21.77.09-21.77-.09-10.89-.04-10.88-.12z" class="E"/><path d="M422.86 62.56a7.38 7.38 0 1 0 0 14.74 7.38 7.38 0 1 0 0-14.74z" class="F"/><path d="M429.17 71.31a6 6 0 0 1-6.31 4.74 6.13 6.13 0 1 1 0-12.24h.14a5.88 5.88 0 1 0 .16 11.74 5.81 5.81 0 0 0 6.01-4.24zm-6.25-5.89a.27.27 0 0 1 .27.25v.41a3.87 3.87 0 0 1 2 .72c.1.07.16.13.16.24a.28.28 0 0 1-.3.25.3.3 0 0 1-.2-.07 3.36 3.36 0 0 0-1.68-.67v2.88c1.7.33 2.42.91 2.42 1.92s-1 1.85-2.4 1.9v.8a.26.26 0 0 1-.27.24.26.26 0 0 1-.27-.24v-.81a4.45 4.45 0 0 1-2.52-1A.25.25 0 0 1 420 72a.28.28 0 0 1 .28-.25.31.31 0 0 1 .2.07 3.78 3.78 0 0 0 2.19.93v-2.9c-1.69-.34-2.38-.91-2.38-1.93s1-1.83 2.35-1.86v-.39a.27.27 0 0 1 .28-.25zm-.24 3.9v-2.8c-1.09 0-1.81.62-1.81 1.36s.36 1.12 1.81 1.44zm.49.63v2.83c1.12 0 1.85-.61 1.85-1.39s-.39-1.14-1.85-1.39zm-5.51 21.17c-9.34 1.68-6.87 15.51 2.48 13.83s6.86-15.51-2.48-13.83z" class="I"/><path d="M418.54 91c-8.9 1.6-6.44 15.43 2.48 13.83s6.43-15.47-2.48-13.83z" class="F"/><path d="M425.42 98.2a5.37 5.37 0 0 1-4.61 5.42c-7.4 1.32-9.45-10.16-2.06-11.48h.14C412 93.5 414 104.37 421 103.1a5.13 5.13 0 0 0 4.42-4.9zm-5.11-4.56a.24.24 0 0 1 .21.26v.39a3.16 3.16 0 0 1 1.65.88.27.27 0 0 1 .11.24.24.24 0 0 1-.28.21.24.24 0 0 1-.17-.09 2.8 2.8 0 0 0-1.38-.8l-.32 2.72c1.44.48 2 1.11 1.89 2.06a1.94 1.94 0 0 1-2.29 1.56l-.09.75a.25.25 0 0 1-.26.21.24.24 0 0 1-.21-.26l.09-.77a3.65 3.65 0 0 1-2.07-1.2.23.23 0 0 1-.09-.21.27.27 0 0 1 .27-.22.24.24 0 0 1 .17.09 3.19 3.19 0 0 0 1.79 1.11l.33-2.77c-1.42-.49-2-1.1-1.85-2.07a1.91 1.91 0 0 1 2.19-1.52v-.37a.24.24 0 0 1 .31-.2zm-.65 3.66.32-2.65a1.43 1.43 0 0 0-1.72 1.1c-.08.66.19 1.1 1.4 1.55zm.34.7-.31 2.68a1.46 1.46 0 0 0 1.76-1.14c.09-.72-.2-1.16-1.45-1.54zm-8.64-25.65c7.55 1.35 5.56 12.54-2 11.18s-5.56-12.53 2-11.18z" class="I"/><path d="M410.65 72.22c7.2 1.29 5.2 12.47-2 11.18s-5.2-12.47 2-11.18z" class="F"/><path d="M405.09 78.07a4.34 4.34 0 0 0 3.73 4.38c6 1.07 7.64-8.21 1.66-9.28h-.11c5.6 1.12 4 9.91-1.71 8.88a4.13 4.13 0 0 1-3.57-3.98zm4.98-4.07a.21.21 0 0 1 .16.22l-.06.31a2.55 2.55 0 0 1 1.28.8.24.24 0 0 1 .08.2.21.21 0 0 1-.37.08 2.31 2.31 0 0 0-1.07-.73l-.41 2.18c1.14.47 1.55 1 1.41 1.77a1.56 1.56 0 0 1-1.93 1.17l-.12.6a.19.19 0 0 1-.22.15.19.19 0 0 1-.15-.22l.12-.61a2.92 2.92 0 0 1-1.61-1.08.21.21 0 0 1-.06-.18.21.21 0 0 1 .23-.16.18.18 0 0 1 .13.08 2.5 2.5 0 0 0 1.39 1l.41-2.21c-1.12-.48-1.52-1-1.38-1.77a1.55 1.55 0 0 1 1.9-1.11l.05-.29a.19.19 0 0 1 .22-.2zm-.72 2.92.4-2.12a1.14 1.14 0 0 0-1.44.79c-.1.52.08.89 1.04 1.32zm.26.54-.4 2.14a1.17 1.17 0 0 0 1.48-.82c.1-.54-.11-.92-1.08-1.33z" class="I"/><g class="B"><path d="M394.63 132.1h34.41v12.66h-34.41zM415.37 144.76h-7.07l3.53 3.58 3.54-3.58z"/></g><path d="M399.56 135.64a.27.27 0 0 1 .28.28v.14a2.18 2.18 0 0 1 1 .35.31.31 0 0 1 .19.3.34.34 0 0 1-.35.35.41.41 0 0 1-.19-.05 2.08 2.08 0 0 0-.66-.28V138c1 .24 1.38.63 1.38 1.31s-.54 1.16-1.35 1.24v.38a.27.27 0 0 1-.28.27.28.28 0 0 1-.28-.27v-.39a2.81 2.81 0 0 1-1.3-.5.36.36 0 0 1 .18-.66.4.4 0 0 1 .21.07 2.17 2.17 0 0 0 .94.43v-1.25c-.93-.24-1.36-.59-1.36-1.31a1.28 1.28 0 0 1 1.33-1.22v-.13a.28.28 0 0 1 .26-.33zm-.25 2.17v-1.12c-.41 0-.61.25-.61.53s.12.43.61.59zm.5.89v1.16c.41-.05.63-.25.63-.56s-.14-.45-.63-.6zm4.92 1.45a.34.34 0 0 1-.35.35h-2.26a.32.32 0 0 1-.26-.12.35.35 0 0 1 0-.49l1.89-1.71a.8.8 0 0 0 .27-.61.82.82 0 0 0-.21-.55.81.81 0 0 0-.62-.27.84.84 0 0 0-.55.21l-.2.18a.34.34 0 0 1-.49 0 .35.35 0 0 1 0-.49l.2-.18a1.5 1.5 0 0 1 1-.4 1.55 1.55 0 0 1 1.14.51 1.53 1.53 0 0 1-.11 2.15l-1.2 1.09h1.35a.35.35 0 0 1 .4.33zm1.46-.55a.47.47 0 1 1 0 .94.47.47 0 0 1 0-.94zm1.89-3.2v3.75a.36.36 0 0 1-.36.35.35.35 0 0 1-.35-.35V137l-.25.14a.32.32 0 0 1-.18.06.36.36 0 0 1-.3-.18.34.34 0 0 1 .12-.48l.78-.46h.26zm.81 1.87a2.77 2.77 0 0 1 .43-1.52 1.44 1.44 0 0 1 1.19-.71 1.42 1.42 0 0 1 1.17.71 2.9 2.9 0 0 1 0 3 1.44 1.44 0 0 1-1.17.71 1.46 1.46 0 0 1-1.19-.71 2.75 2.75 0 0 1-.43-1.48zm2.51 0a2.07 2.07 0 0 0-.3-1.13.74.74 0 0 0-.59-.39.76.76 0 0 0-.61.39 2.07 2.07 0 0 0-.3 1.13 2.1 2.1 0 0 0 .3 1.13.78.78 0 0 0 .61.39.77.77 0 0 0 .59-.39 2.1 2.1 0 0 0 .3-1.13zm4.82 1.88a.34.34 0 0 1-.35.35h-2.26a.36.36 0 0 1-.27-.12.35.35 0 0 1 0-.49l1.89-1.71a.8.8 0 0 0 .26-.61.82.82 0 0 0-.21-.55.77.77 0 0 0-.61-.27.84.84 0 0 0-.55.21l-.2.18a.34.34 0 0 1-.49 0 .35.35 0 0 1 0-.49l.2-.18a1.5 1.5 0 0 1 1-.4 1.55 1.55 0 0 1 1.14.51 1.53 1.53 0 0 1-.11 2.15l-1.2 1.09h1.35a.35.35 0 0 1 .41.33zm.96.92a.55.55 0 0 0 .43-.57.45.45 0 0 1-.36-.43.41.41 0 0 1 .43-.43c.29 0 .46.22.46.56v.07a1.31 1.31 0 0 1-.31.93 1 1 0 0 1-.6.27.17.17 0 0 1-.2-.18.17.17 0 0 1 .15-.22zm4.36-2.07a1.52 1.52 0 1 1-2.36-1.26 1.05 1.05 0 1 1 1.68 0 1.51 1.51 0 0 1 .68 1.26zm-.69 0a.82.82 0 0 0-.82-.82.83.83 0 1 0 0 1.65.83.83 0 0 0 .82-.83zm-1.19-1.89a.36.36 0 0 0 .37.36.36.36 0 1 0-.37-.36zm6.01 1.89a1.55 1.55 0 0 1-1.55 1.54 1.53 1.53 0 0 1-1.53-1.38v-.37a3.7 3.7 0 0 1 .22-1.3 2.25 2.25 0 0 1 .82-1.09 1.78 1.78 0 0 1 .95-.3.35.35 0 0 1 .37.34.36.36 0 0 1-.34.37 1.06 1.06 0 0 0-.6.18 1.22 1.22 0 0 0-.4.44.89.89 0 0 0-.08.17 1.36 1.36 0 0 1 .61-.13 1.55 1.55 0 0 1 1.53 1.53zm-.71 0a.85.85 0 0 0-.84-.84.83.83 0 0 0-.83.84.82.82 0 0 0 .83.83.84.84 0 0 0 .88-.83z" class="G"/><g class="B"><path d="M240.33 201.09c7.32.55 14.81.7 22.23.67s14.89-.3 22.32-.81 14.84-1.27 22.21-2.28 14.73-2.26 22-3.89a201.85 201.85 0 0 0 42.35-14 143.65 143.65 0 0 0 19.42-11A119.4 119.4 0 0 0 408 155.36l.11.1a120.08 120.08 0 0 1-16.85 14.83A144.56 144.56 0 0 1 372 181.85a203 203 0 0 1-42.36 15.09c-7.29 1.81-14.68 3.24-22.09 4.43s-14.88 2.13-22.36 2.82-15 1.13-22.51 1.34-15 .23-22.62-.16Z"/><path d="M252.66 206.21c-4.57 0-8.72-.1-12.68-.31h-.55l.4-5.36h.54c6.51.48 13.57.7 22.19.66 7.36 0 14.86-.3 22.28-.81s14.93-1.28 22.18-2.27c8-1.11 15.22-2.38 22-3.88a202.45 202.45 0 0 0 42.24-13.95 144.37 144.37 0 0 0 19.35-11 121.2 121.2 0 0 0 17-14.32l.37-.38.88.82-.37.4a121.34 121.34 0 0 1-16.92 14.9 145.58 145.58 0 0 1-19.36 11.6 204.39 204.39 0 0 1-42.48 15.13c-6.79 1.69-14 3.14-22.14 4.45a343.29 343.29 0 0 1-22.4 2.82c-7.55.7-15.07 1.13-22.54 1.34l-9.99.16zm-12.08-1.35c6.49.31 13.51.36 22 .13a347.39 347.39 0 0 0 22.48-1.34 340.04 340.04 0 0 0 22.32-2.81c8.08-1.3 15.29-2.75 22-4.42a203.7 203.7 0 0 0 42.25-15l3.86-2-3.9 1.92a203.29 203.29 0 0 1-42.47 14c-6.75 1.51-14 2.79-22 3.89-7.28 1-14.77 1.77-22.26 2.29s-15 .78-22.34.81c-8.43 0-15.35-.17-21.75-.63z"/><path d="m410.36 159.16 1.75-8.36-8.12 2.67 6.37 5.69z"/></g><path d="m213.46 321.1 2.92 17.48 19.74 106.63h3.18l-14.36-106.63-2.12-17.48h-9.36z" class="E"/><path d="M222.82 321.1h-9.36l2.92 17.48h8.56l-2.12-17.48z" class="K"/><path d="M151.45 445.21h3.19l19.74-106.63 2.92-17.48h-9.37l-2.12 17.48-14.36 106.63z" class="E"/><path d="m167.93 321.1-2.12 17.48h8.57l2.92-17.48h-9.37z" class="K"/><path d="M92.23 445.21h3.18l19.75-106.63 2.91-17.48h-9.36l-2.12 17.48-14.36 106.63z" class="E"/><path d="M106.59 338.58h8.57l2.91-17.48h-9.36l-2.12 17.48z" class="K"/><path d="M97.28 329.31h144.68v-15.24H187.8l-28.2-158.02H82.79l14.49 173.26z" class="E"/><g class="F"><path d="M97.89 314.07h144.07v15.24H97.35l.54-15.24z"/><path d="M97.28 329.31h7.88L90.3 156.05h-7.51l14.49 173.26z"/></g><path d="M236.36 465.53c-2.81.27-79.42-18-81.84-20.46-.29-.28 1.21-7.24 3.42-16.74l.05-.18c1.38-6 23.69-54.71 23.69-54.71l49.66 13.84-22.56 45.18s9.35 6.74 17.36 13.15c5 3.94 9.21 7.47 10.12 8.62 2.36 3.01 2.91 11.05.1 11.3z" class="H"/><path d="M236.36 465.52c-2.81.28-79.42-18-81.84-20.45-.3-.28 1.21-7.24 3.42-16.74l.05-.18c.51-2.24 3.94-10.43 8-19.8l48.11 13.4-5.34 10.71s9.34 6.75 17.35 13.15c4.94 3.94 9.22 7.47 10.12 8.61 2.39 3.02 2.94 11.07.13 11.3z" class="D"/><path d="M236.61 465.89c-2.89.25-79.56-18.2-82-20.75-.94-1 .75-13.06 5-25.88l49.41 12s25.24 20 27.66 23.06 2.82 11.32-.07 11.57z" class="B"/><g class="C"><path d="M236.25 462.56c-12.78-3.41-64.62-15.95-77.51-18.35-.11 0-.12.05 0 .08 12.59 3.65 64.54 15.78 77.48 18.48.25.06.3-.14.03-.21zm-3.93-12.22a10.61 10.61 0 0 0-8.44 1.28 10.3 10.3 0 0 0-4.53 6.17c0 .08.13.12.16 0a12.26 12.26 0 0 1 12.77-7.33.08.08 0 0 0 .04-.12zm-19.67-16.86c-5.12-1.31-11.52-.93-15.73 2.5-.17.14 0 .37.2.32a73.21 73.21 0 0 1 15.47-2.17.33.33 0 0 0 .06-.65zm3.6 2.52c-5.12-1.31-11.53-.93-15.73 2.51-.17.13 0 .36.2.32a73.22 73.22 0 0 1 15.47-2.18.33.33 0 0 0 .06-.65zm3.6 2.48c-5.13-1.31-11.53-.93-15.74 2.51-.16.13 0 .36.2.32a72.75 72.75 0 0 1 15.48-2.17.34.34 0 0 0 .06-.66zm3.6 2.52c-5.13-1.31-11.53-.93-15.74 2.5-.16.14 0 .37.2.33a73.4 73.4 0 0 1 15.47-2.18.33.33 0 0 0 .07-.65zM165 432.79c-5.77-1.37-7.92 7.6-2.13 9s7.87-7.63 2.13-9z"/><path d="M221.52 421.09c-2.09-2.79-5.88-1.47-8 .39a27.7 27.7 0 0 0-7.84 12 .14.14 0 0 0 .12.18c0 .4.39.81.83.64 4.27-1.65 9-2.89 12.68-5.8 2.11-1.67 4.18-4.78 2.21-7.41zm-9 9.41c-2.08.86-4.19 1.62-6.24 2.56a83.76 83.76 0 0 1 4.74-6.92 28.77 28.77 0 0 1 2.71-3c1.53-1.43 7.61-4.51 6.78 1.21-.42 3.13-5.46 5.12-7.94 6.15z"/><path d="M192.42 432.34c4.31 1.76 9.24 1.6 13.8 2a.65.65 0 0 0 .62-.85c.07 0 .13-.12.06-.21a27.69 27.69 0 0 0-10.9-9.34c-2.58-1.18-6.59-1.37-7.8 1.89-1.2 3.08 1.7 5.48 4.22 6.51zm-2.4-3.68c-2.42-5.25 4.29-4 6.16-3.07a29.08 29.08 0 0 1 3.45 2.13 80.75 80.75 0 0 1 6.5 5.3c-2.23-.32-4.47-.45-6.71-.69-2.67-.33-8.07-.77-9.42-3.67zm23.15-2.09-52.72-14.12s46.33-96.09 42.55-101.38c-1.87-2.64-51.29-4.87-66.61-18.68-19.91-17.93-5.42-44-5.42-44h55.26s-1 11.53 1.09 13.33c1.39 1.2 67 8.7 73.57 31.11 8.11 27.49-47.72 133.74-47.72 133.74z"/></g><path d="M214.1 418.84a31.84 31.84 0 0 0-4.33-1.64l-4.6-1.57-9.14-2.82-18.55-5.14c-3.24-.84-10.18-2.67-10.61-2.61-.21 0-.26.38-.07.45 6 2.18 12.09 4.05 18.19 5.95s12.17 3.75 18.34 5.35l5.15 1.25a38.78 38.78 0 0 0 5.46 1.2c.18.01.35-.32.16-.42zm-1.48-112.07c-1.08-1-2.75-1.14-4.13-1.42l-23.79-4.72-22.26-4.46c-6.12-1.37-12.32-3.16-17.54-6.65A25.72 25.72 0 0 1 134.47 275c-1.68-5.91-1.63-12.21-.86-18.26.18-1.48.5-2.95.82-4.41a.09.09 0 0 0-.18 0c-2.35 11.26-2.93 24.4 5.29 33.67 4 4.53 9.6 7.28 15.35 9.13 6.48 2.08 13.28 3.18 20 4.5l23.79 4.7c3.82.75 7.7 1.37 11.48 2.28a3.9 3.9 0 0 1 2 1 3 3 0 0 1 .25 2.78c-.44 1.86-1 3.71-1.59 5.53-4.82 14.65-38.41 84.44-39.32 86.08a.152.152 0 0 0 .27.14c7.7-12.82 32.76-66.7 38-80.62a90 90 0 0 0 3.46-10.85c.32-1.36.53-2.86-.61-3.9z" class="G"/><path d="M371.31 467.45c-2.63 1.05-81.28 5.07-84.29 3.36-.37-.18-.88-7.29-1.42-17l-.4-9.18c-.13-3.1-40.62-48.23-40.62-48.23L301 393l34.53 50.49s10.86 3.85 20.35 7.75c5.86 2.38 10.95 4.58 12.14 5.42 3.13 2.2 5.91 9.77 3.29 10.79z" class="H"/><path d="M274.89 431.06c5.87 7 10.26 12.53 10.31 13.55l.4 9.18c.54 9.73 1.06 16.84 1.42 17 3 1.71 81.66-2.31 84.29-3.35s-.16-8.6-3.26-10.81c-1.18-.84-6.27-3-12.12-5.43-9.49-3.89-20.35-7.74-20.35-7.74l-10-14.58z" class="D"/><path d="M371.65 467.73c-2.71 1.06-81.47 4.88-84.56 3.13-1.18-.66-2.95-12.74-2.53-26.22l50.78-2.41s29.83 12.08 33 14.37 6.02 10.08 3.31 11.13z" class="B"/><g class="C"><path d="M370.37 464.64c-13.22.31-66.51 2.84-79.55 4.16-.11 0-.1.08 0 .08 13.11 0 66.38-3 79.56-4 .28-.05.27-.25-.01-.24zM363.16 454a10.57 10.57 0 0 0-7.74 3.61 10.28 10.28 0 0 0-2.61 7.19c0 .08.15.07.16 0a12.27 12.27 0 0 1 10.2-10.63.085.085 0 0 0-.01-.17zm-23.61-10.65c-5.29.19-11.33 2.35-14.4 6.83-.12.17.13.34.28.25a73.26 73.26 0 0 1 14.24-6.43.33.33 0 0 0-.12-.65zm4.16 1.39c-5.29.19-11.33 2.35-14.4 6.83-.12.18.13.34.28.25a73.26 73.26 0 0 1 14.24-6.43.34.34 0 0 0-.12-.65zm4.15 1.4c-5.29.18-11.32 2.34-14.4 6.82-.12.18.13.34.29.26a73.21 73.21 0 0 1 14.25-6.44.33.33 0 0 0-.14-.64zm4.14 1.39c-5.29.18-11.33 2.34-14.4 6.83-.12.17.13.34.28.25a73.3 73.3 0 0 1 14.24-6.44.33.33 0 0 0-.12-.64zm-58.43 8.57c-5.92.3-5.46 9.52.48 9.21s5.46-9.52-.48-9.21z"/><path d="M344.57 429c-2.78-2.08-6 .25-7.58 2.63a27.84 27.84 0 0 0-4.15 13.75c0 .11.09.15.18.14a.64.64 0 0 0 1 .38c3.63-2.79 7.87-5.31 10.54-9.13 1.53-2.26 2.65-5.77.01-7.77zm-5.93 11.55c-1.76 1.41-3.57 2.73-5.27 4.21a83.4 83.4 0 0 1 2.59-8 30.63 30.63 0 0 1 1.76-3.65c1.06-1.81 6-6.47 6.84-.75.44 3.15-3.83 6.47-5.92 8.16z"/><path d="M319.81 447.94c4.64.49 9.32-1.05 13.8-2a.64.64 0 0 0 .35-1c.07-.06.1-.15 0-.22a27.75 27.75 0 0 0-13.1-5.88c-2.81-.4-6.71.54-7 4-.18 3.33 3.24 4.82 5.95 5.1zm-3.34-2.85c-3.79-4.36 3-5 5-4.68a31.57 31.57 0 0 1 3.92 1.07 83 83 0 0 1 7.72 3.27c-2.23.32-4.41.82-6.63 1.22-2.6.48-7.91 1.52-10.01-.88zM338 432.9l-63.06 7.71L207.48 361c-15.63-15.4-71.63-42-88.34-66.7-15-22.21.2-45.94.2-45.94h61.57a127.32 127.32 0 0 1-6.27 19.21s51.14 38.51 78.41 66C270.62 351.36 338 432.9 338 432.9z"/></g><g class="G"><path d="M185.58 263.69a30.12 30.12 0 0 0-5.26 1.52l-5.27 2.11a101.49 101.49 0 0 0-9.9 5.22c-.1.06 0 .2.09.15 3.38-1.63 6.86-3.08 10.35-4.46l5-2a54.78 54.78 0 0 0 5.09-2.07c.25-.11.15-.5-.1-.47z"/><path d="m182.34 248.4-2.37 8.36-1.33 3.78c-.44 1-1.09 2.21-2.31 2.4-1.4.23-1.76-1-1.61-2.12a38.78 38.78 0 0 1 .82-3.82l2-8.53c0-.04 0-.13-.06-.21a.11.11 0 0 0-.13 0 61.51 61.51 0 0 0-2.35 6.89l-1.13 4a6.35 6.35 0 0 0-.36 3.11 2.38 2.38 0 0 0 2.15 1.86c0 .09-.11.17-.16.27-.13.27-.23.56-.34.84l-.31.87a2.16 2.16 0 0 0-.1.44v.48a.24.24 0 0 0 .44.17 4.56 4.56 0 0 1 .27-.39 1.92 1.92 0 0 0 .21-.46c.11-.28.2-.56.28-.84l.23-.85a4.63 4.63 0 0 0 .07-.52 3.21 3.21 0 0 0 1.64-.57 5.42 5.42 0 0 0 1.75-2.51c.46-1.16.83-2.36 1.19-3.55a53.23 53.23 0 0 0 2.06-9 .28.28 0 0 0-.55-.1zm-36.79 5.79-.86 4.16-1.24 4a14.66 14.66 0 0 1-1.82 3.57 13.58 13.58 0 0 1-2.81 2.7 23.27 23.27 0 0 1-6.71 3.47 29.45 29.45 0 0 1-3.69 1 18.68 18.68 0 0 1-2 .28 4.3 4.3 0 0 0-1.59.32.32.32 0 0 0 0 .55 5.76 5.76 0 0 0 2.92.18 20.73 20.73 0 0 0 3.13-.46 22.38 22.38 0 0 0 6-2.3 18.79 18.79 0 0 0 5.05-3.89 13.87 13.87 0 0 0 2.8-5.69 28.32 28.32 0 0 0 1.09-7.81.141.141 0 0 0-.27-.08zm178.54 169.43a39.47 39.47 0 0 0-5.1.2l-5.35.38q-5.26.42-10.5 1l-21.09 2.6-11.92 1.79a.24.24 0 0 0 .11.44c7-.36 14-1 21.05-1.71l21-2.32 5.77-.88a46.27 46.27 0 0 0 6.08-1.05c.15-.07.19-.44-.05-.45zm-135.77-76.94c3.27 2.1 6.43 4.36 9.6 6.6a91.47 91.47 0 0 1 8.71 6.44 47.88 47.88 0 0 1 3.84 4.09l3.76 4.35q3.77 4.33 7.47 8.74 2.1 2.48 4.18 5c1.44 1.73 2.77 3.55 4.22 5.28.09.11-.06.26-.15.15l-7.84-8.56-7.66-8.77c-2.55-3-4.79-5.77-7.38-8.46a60.53 60.53 0 0 0-8.62-6.76l-10.43-7.61c-.29-.17-.02-.7.3-.49zm-12.69-78.62c10.51 7.38 21.4 15.63 31.28 23.82s19.68 16.56 29.25 25.15q4 3.6 8 7.3c2.66 2.49 5.26 5.59 7.92 8.07.15.13-.07.34-.22.21l-14.65-13.24-14.57-12.57q-14.68-12.57-29.73-24.71c-5.56-4.51-12.05-9.07-17.5-13.72-.21-.15.03-.45.22-.31zm-54.42-12.39 1.89-5.29c0-.1.2 0 .17.05-2.48 7.33-5 14.82-5.29 22.62a29.49 29.49 0 0 0 1.6 11 28.8 28.8 0 0 0 5.62 9.15c4.9 5.53 11.14 9.89 17 14.3 6.39 4.79 12.91 9.43 19.5 14s13.33 8.83 20.15 13 13.72 7.93 20.51 12a54.51 54.51 0 0 1 9.17 6.81 112.39 112.39 0 0 1 7.94 8.53q8.22 9.39 16.29 18.92 16.17 19 31.73 38.57l3.8 4.79c.06.08-.05.19-.12.11q-16-19.59-32.34-38.9-8.13-9.58-16.34-19.1c-5.24-6.06-10.29-12.49-17-17.05-3.23-2.2-6.67-4.07-10.07-6L184.86 337q-10.41-6.27-20.52-13c-6.69-4.47-13.29-9.07-19.76-13.86q-4.86-3.58-9.62-7.29a93.77 93.77 0 0 1-7.92-6.7 35.49 35.49 0 0 1-6.34-8 26.22 26.22 0 0 1-3.1-10.15c-.8-7.58 1.2-15.2 3.61-22.33z"/></g><path d="M155.24 176.86c10.12 9.28 49.44 36.23 60.59 32.63 8.29-2.67 9.51-12.37 4.82-19.94-4.09-6.58-43.86-17.66-55-20.65-10.65-2.85-20.35-1.16-10.41 7.96z" class="H"/><path d="m180.51 198.38 23.15-19.76s-29.47-10.15-42.47-12.09c-13.56-2-17.52 2.52-3.25 13.74l22.57 18.11z" class="B"/><path d="M173.7 175.48a1.59 1.59 0 0 1-.7.35 1.39 1.39 0 0 1-1.32-.4 1.84 1.84 0 0 0-2-.35 1.8 1.8 0 0 0-.75.66l-.51.77c.27-.16.51-.34.76-.51a1.74 1.74 0 0 1 .7-.38 1.39 1.39 0 0 1 1.32.35 1.87 1.87 0 0 0 2 .42 1.8 1.8 0 0 0 .78-.65l.51-.77c-.29.16-.49.34-.79.51zm14.71-1.84a1.89 1.89 0 0 0-1.16 1.05 1.77 1.77 0 0 0-.09 1l.18.9c.08-.3.12-.6.18-.9a1.85 1.85 0 0 1 .25-.75 1.44 1.44 0 0 1 1.22-.64 1.63 1.63 0 0 0 .84-.23zm-12.68 19-.19-.91c-.08.3-.12.61-.18.91a1.74 1.74 0 0 1-.23.76 1.46 1.46 0 0 1-.33.37l.53.42a1.55 1.55 0 0 0 .33-.55 1.93 1.93 0 0 0 .07-1.05zm-23.16-26.28a.43.43 0 0 0 0 .11v-.12zm39.47 21a1.85 1.85 0 0 0-1.19-1.69 1.82 1.82 0 0 0-1-.06l-.9.18c.3.08.6.12.9.18a1.84 1.84 0 0 1 .76.23 1.42 1.42 0 0 1 .69 1.18 1.84 1.84 0 0 0 .59 1.37l.5-.43a1.39 1.39 0 0 1-.39-1.04z" class="I"/><g class="C"><path d="M178.67 193.06c.49-.53 1.07-1 1.61-1.48l1.67-1.5 3.42-3 6.92-5.89 1.94-1.57 2.1-1.58s.08 0 0 .07l-1.62 1.57-1.71 1.54-3.45 3-6.86 5.74-1.94 1.57-2.07 1.63c.01-.02-.05-.07-.01-.1z"/><path d="m157.94 180.27 22.57 18.1 7.4-6.31-38.38-24.29c-1.79 2.14.53 6.3 8.41 12.5z"/></g><path d="M221.15 205.74c-5.63 8.6-15.74.66-17.25-6.36-3.55-16.48-3.2-35.58-2.21-47.55.41-4.89 30.57-6 30.13-.77-.92 10.94-.92 39.79-10.67 54.68z" class="H"/><g class="C"><path d="m201.17 179.7.56 3.84.46 3.84.42 3.84.22 1.93.24 1.92a27.67 27.67 0 0 1-.86-3.79l-.54-3.84-.35-3.86-.15-3.88z"/><path d="m202 187.62-.09 2.2c0 .36-.06.72-.1 1.08a8.48 8.48 0 0 1-.2 1.1 5.78 5.78 0 0 1-.22-2.22 5.84 5.84 0 0 1 .18-1.11 3.69 3.69 0 0 1 .43-1.05z"/></g><g class="H"><path d="M231.12 132c2 6.09 1.21 20.14-.29 23.45s-25.42 2.77-27.63-.23-7.35-24-5-30.15 30.86.66 32.92 6.93z"/><path d="M196.51 135.24c2.57 2.21 3.71-2.09 3.71-2.09s-.14 6.58 3.39 7.84 4.6-4 4.69-4.42c0 .35 0 6.4 3.71 7.3s4.12-4.54 4.13-4.89c.1.33 1.49 4.67 4.44 4.71 5.07.08 1.84-11.13 4-14.64l6.56 3s-2.85-10.73-7.75-13.34a3.54 3.54 0 0 0-4.37.75s-.54-3.56-3.42-4.36c-1.48-.4-3.44 1.6-3.44 1.6a4.44 4.44 0 0 0-3.16-3.38c-2.07-.44-3.72 1.64-3.72 1.64s-1.79-2.48-4.06-2.24c-4.6.45-10.22 17.77-4.71 22.52z"/></g><g class="C"><path d="M205 115.24c0-.06 0-.1-.08 0a31.61 31.61 0 0 0-4.74 18.18c0 .21.35.27.38 0a64.71 64.71 0 0 1 4.44-18.18zm7.13 1.36c0-.07-.08-.12-.12 0-3.31 5.42-5.3 13.09-3.93 20.16 0 .24.33.41.3.13-.55-4.82 1.46-14.89 3.75-20.29zm4.28 22.84c-1-6.83.2-13.31 2.43-19.77 0-.09-.09-.12-.13-.06-2 2.87-3 7.14-3.45 10.53a18.17 18.17 0 0 0 .91 9.33c.04.12.26.11.24-.03z"/><path d="M200.22 133.15a20.27 20.27 0 0 0 .61 3.74 7 7 0 0 0 1.67 3.23 2.28 2.28 0 0 0 1.5.65 3.39 3.39 0 0 0 1.64-.38 4.06 4.06 0 0 0 1.83-2.75l.58-2.73.41 2.76a11.39 11.39 0 0 0 1.08 3.53 4.06 4.06 0 0 0 2.45 2.25 2.31 2.31 0 0 0 2.73-1 6.9 6.9 0 0 0 .87-3.42l.1-3.29 1 3.13a10.92 10.92 0 0 0 1.14 2.48 4.37 4.37 0 0 0 1.85 1.75 2.11 2.11 0 0 0 2.19-.29 4.64 4.64 0 0 0 1.13-2.33 38 38 0 0 0 .6-5.69l.22-2.89a7 7 0 0 1 .76-2.8 7.52 7.52 0 0 0-.49 2.82v2.88a31.92 31.92 0 0 1-.31 5.84 5.44 5.44 0 0 1-1.27 2.84 3 3 0 0 1-3.22.56 5.49 5.49 0 0 1-2.35-2.11 12 12 0 0 1-1.31-2.75l1.08-.16a8.14 8.14 0 0 1-1 4.05 3.38 3.38 0 0 1-1.75 1.46 3.79 3.79 0 0 1-2.26.05 5.13 5.13 0 0 1-3.1-2.85 12.47 12.47 0 0 1-1.13-3.9h1a4.86 4.86 0 0 1-2.47 3.27 4.08 4.08 0 0 1-2.06.36 2.9 2.9 0 0 1-1.88-.91 7.08 7.08 0 0 1-1.56-3.55 17 17 0 0 1-.28-3.85z"/></g><path d="M201.69 151.83s-17.95-20.42-6.53-23.52c3.39-.93 18.43-.67 18.43 2.35 0 3.9-6.28 5-10.34 5 0 0 7.08 6.08 4.32 12.28a6.76 6.76 0 0 1-5.88 3.89z" class="H"/><path d="M194.23 128.63a13.91 13.91 0 0 1 4-1 31.87 31.87 0 0 1 4.15-.21 48.5 48.5 0 0 1 8.3.74 7.86 7.86 0 0 1 2.1.7 2.84 2.84 0 0 1 1 .8 1.76 1.76 0 0 1 .33.61 2.35 2.35 0 0 1 .11.68 3.51 3.51 0 0 1-.88 2.26 6.6 6.6 0 0 1-1.79 1.39 12.82 12.82 0 0 1-4.11 1.24 29.61 29.61 0 0 1-4.19.29l.29-.85a16.36 16.36 0 0 1 2.13 2.37 15.31 15.31 0 0 1 1.63 2.72 10.67 10.67 0 0 1 .89 3 8.34 8.34 0 0 1-.17 3.11 9.17 9.17 0 0 0-.16-3.05 11.48 11.48 0 0 0-1.1-2.82 14.74 14.74 0 0 0-1.71-2.5 15.17 15.17 0 0 0-2.12-2.12l-1-.78 1.26-.07a29.9 29.9 0 0 0 4-.41 12.28 12.28 0 0 0 3.74-1.17c1.09-.59 2.08-1.56 2.07-2.62s-1.35-1.46-2.61-1.74a39.92 39.92 0 0 0-4-.67l-4.08-.42a26.25 26.25 0 0 0-8.08.52z" class="C"/><path d="M190.82 259c-1.37 1.93-80 9.28-80.45 8.86-1.19-1.12 3.84-71.54 28.15-100.05 4.29-5 13-4.88 17.3-3.14 2.13.87 10.18 9.84 13.29 18.14s22.56 74.96 21.71 76.19z" class="B"/><path d="M158.79 187.2a1.55 1.55 0 0 1-.74-.25 1.4 1.4 0 0 1-.65-1.21 1.81 1.81 0 0 0-2.19-1.76l-.91.18c.3.09.61.12.91.18a1.84 1.84 0 0 1 .76.23 1.4 1.4 0 0 1 .68 1.18 1.86 1.86 0 0 0 1.13 1.72 1.71 1.71 0 0 0 1 .1l.91-.18c-.3-.09-.6-.12-.9-.19zm13.88 58a1.67 1.67 0 0 1-.74-.26 1.4 1.4 0 0 1-.65-1.21 1.81 1.81 0 0 0-2.19-1.76l-.91.18c.31.09.61.12.91.19a1.59 1.59 0 0 1 .76.23 1.4 1.4 0 0 1 .69 1.17 1.83 1.83 0 0 0 1.13 1.72 1.67 1.67 0 0 0 1 .1l.91-.18a9.15 9.15 0 0 0-.91-.19zm-40.33-34.7a1.85 1.85 0 0 1-.75-.25A1.44 1.44 0 0 1 131 209a1.85 1.85 0 0 0-1.19-1.69 2 2 0 0 0-1-.07l-.9.19c.3.08.6.12.9.18a1.79 1.79 0 0 1 .77.23 1.38 1.38 0 0 1 .68 1.18 1.87 1.87 0 0 0 1.13 1.72 1.77 1.77 0 0 0 1 .09l.9-.18-.95-.16zm33 51.51a1.78 1.78 0 0 0-1-.07l-.9.18c.3.08.6.12.9.18a1.84 1.84 0 0 1 .76.23.88.88 0 0 1 .24.19l.83-.1a1.76 1.76 0 0 0-.78-.62zm-15-26.22a1.67 1.67 0 0 1-.74-.25 1.41 1.41 0 0 1-.65-1.22 1.85 1.85 0 0 0-1.19-1.69 1.82 1.82 0 0 0-1-.06l-.9.18c.3.08.6.12.9.18a1.84 1.84 0 0 1 .76.23 1.42 1.42 0 0 1 .69 1.18 1.86 1.86 0 0 0 1.13 1.72 1.74 1.74 0 0 0 1 .09 9.15 9.15 0 0 0 .91-.18c-.25-.09-.52-.13-.83-.19zM118 241.12a1.85 1.85 0 0 1-.75-.25 1.42 1.42 0 0 1-.65-1.22 1.81 1.81 0 0 0-2.19-1.76l-.9.18c.3.09.6.13.9.19a1.59 1.59 0 0 1 .76.23 1.4 1.4 0 0 1 .69 1.17 1.87 1.87 0 0 0 1.13 1.73 1.77 1.77 0 0 0 1 .09l.9-.18c-.31-.09-.61-.12-.89-.18zm47.38-29.91a1.8 1.8 0 0 1-.74-.25 1.42 1.42 0 0 1-.65-1.22 1.85 1.85 0 0 0-1.19-1.69 1.93 1.93 0 0 0-1-.07l-.91.19c.3.08.61.12.91.18a1.7 1.7 0 0 1 .76.23 1.38 1.38 0 0 1 .68 1.18 1.87 1.87 0 0 0 1.13 1.72 1.79 1.79 0 0 0 1 .09l.91-.18c-.28-.08-.62-.12-.92-.18zm-27.48-38.39a1.87 1.87 0 0 1-.7.38 1.43 1.43 0 0 1-1.32-.35 1.77 1.77 0 0 0-.84-.48l-.43.62a1.29 1.29 0 0 1 .75.4 1.82 1.82 0 0 0 2.8-.31l.51-.77c-.28.16-.51.34-.77.51zm15-8.95a1.91 1.91 0 0 0-.45.64 1.77 1.77 0 0 0-.09 1l.18.9c.09-.3.12-.6.18-.9a1.85 1.85 0 0 1 .25-.75 1.42 1.42 0 0 1 1.11-.64c-.33-.12-.72-.12-1.08-.25zM148.81 215l-.18-.91c-.08.31-.12.61-.18.91a1.84 1.84 0 0 1-.23.76 1.42 1.42 0 0 1-1.18.69 1.84 1.84 0 0 0-1.72 1.13 1.74 1.74 0 0 0-.09 1l.18.91c.08-.3.12-.61.18-.91a1.67 1.67 0 0 1 .25-.74 1.41 1.41 0 0 1 1.22-.65 1.86 1.86 0 0 0 1.69-1.19 1.82 1.82 0 0 0 .06-1zm37.37 39.45a9.18 9.18 0 0 0-.19-.91c-.08.3-.12.6-.18.91a1.62 1.62 0 0 1-.23.76 1.38 1.38 0 0 1-1.17.68 1.89 1.89 0 0 0-1.73 1.13 1.79 1.79 0 0 0-.09 1l.18.91c.09-.31.12-.61.18-.91a1.8 1.8 0 0 1 .25-.74 1.42 1.42 0 0 1 1.22-.65 1.85 1.85 0 0 0 1.69-1.19 1.93 1.93 0 0 0 .07-1.04zm-66.59-37.55-.18-.91c-.09.3-.12.6-.19.91a1.66 1.66 0 0 1-.23.76 1.37 1.37 0 0 1-1.17.68 1.9 1.9 0 0 0-.89.23l-.25 1.08a1.4 1.4 0 0 1 1.15-.56 1.81 1.81 0 0 0 1.76-2.19zm17.13-29.5-.18-.9c-.08.3-.12.6-.18.9a1.94 1.94 0 0 1-.23.77 1.38 1.38 0 0 1-1.18.68 1.81 1.81 0 0 0-1.82 2.14l.19.9c.08-.3.12-.6.18-.9a1.71 1.71 0 0 1 .25-.75 1.42 1.42 0 0 1 1.22-.64 1.8 1.8 0 0 0 1.75-2.2zm36.11 7.06a1.69 1.69 0 0 0-.6.75 1.79 1.79 0 0 0-.09 1l.18.91c.08-.31.12-.61.18-.91a1.8 1.8 0 0 1 .25-.74 1.47 1.47 0 0 1 .29-.32zm-35.77 51.86-.18-.9c-.08.3-.12.6-.18.9a1.7 1.7 0 0 1-.23.76 1.39 1.39 0 0 1-1.18.69 1.87 1.87 0 0 0-1.72 1.13 1.77 1.77 0 0 0-.09 1l.18.9c.08-.3.12-.6.18-.9a1.71 1.71 0 0 1 .25-.75 1.4 1.4 0 0 1 1.22-.64 1.8 1.8 0 0 0 1.75-2.2zm12.24-48.68a1.6 1.6 0 0 1-.71.34 1.38 1.38 0 0 1-1.31-.4 1.82 1.82 0 0 0-2.8.31l-.51.77c.28-.15.51-.34.77-.51a1.87 1.87 0 0 1 .7-.38 1.43 1.43 0 0 1 1.32.35 1.87 1.87 0 0 0 2 .42 1.8 1.8 0 0 0 .78-.65l.51-.76c-.26.1-.49.29-.75.46zm-16.53 32.56a1.74 1.74 0 0 1-.71.35 1.41 1.41 0 0 1-1.31-.41 1.86 1.86 0 0 0-2-.35 1.9 1.9 0 0 0-.76.66l-.51.77c.28-.15.51-.34.77-.51a1.87 1.87 0 0 1 .7-.38 1.43 1.43 0 0 1 1.32.35 1.84 1.84 0 0 0 2 .42 1.88 1.88 0 0 0 .79-.64l.51-.77a8.56 8.56 0 0 0-.8.46zm7.14 33.8a1.59 1.59 0 0 1-.7.35 1.43 1.43 0 0 1-1.32-.4 1.83 1.83 0 0 0-2-.36 1.86 1.86 0 0 0-.76.67l-.51.76c.27-.15.51-.34.77-.51a1.71 1.71 0 0 1 .7-.37 1.35 1.35 0 0 1 1.31.35 1.87 1.87 0 0 0 2 .41 1.72 1.72 0 0 0 .78-.64l.51-.77c-.28.13-.52.32-.78.51zm32-37.18a1.71 1.71 0 0 1-.7.35 1.45 1.45 0 0 1-1.32-.4 1.85 1.85 0 0 0-2-.36 1.89 1.89 0 0 0-.75.67l-.51.76c.27-.15.51-.34.76-.51a1.74 1.74 0 0 1 .71-.37 1.37 1.37 0 0 1 1.31.34 1.86 1.86 0 0 0 2 .42 1.72 1.72 0 0 0 .78-.64l.51-.77c-.3.13-.54.32-.8.49zm-15 23.7a1.49 1.49 0 0 1-.7.35 1.4 1.4 0 0 1-1.32-.4 1.83 1.83 0 0 0-2-.35 1.77 1.77 0 0 0-.76.66l-.51.77.77-.51a1.87 1.87 0 0 1 .7-.38 1.43 1.43 0 0 1 1.32.35 1.86 1.86 0 0 0 2 .42 1.8 1.8 0 0 0 .78-.65 8.56 8.56 0 0 0 .51-.77c-.32.14-.56.33-.82.49zm-34.08 4.66a1.49 1.49 0 0 1-.7.35 1.39 1.39 0 0 1-1.32-.4 1.84 1.84 0 0 0-2-.35 1.8 1.8 0 0 0-.75.66l-.51.77c.27-.15.51-.34.76-.51a1.87 1.87 0 0 1 .7-.38 1.41 1.41 0 0 1 1.32.35 1.87 1.87 0 0 0 2 .42 1.8 1.8 0 0 0 .78-.65 8.56 8.56 0 0 0 .51-.77c-.32.14-.56.33-.82.49z" class="I"/><g class="H"><path d="M126.93 179c-10.49 13.48-36.32 54.25-28.06 63.6s61.71 12.12 76.23 6.61c4.32-1.64-9.35-28.85-14.18-29.86-4-.83-30.83-.79-31-1.64-.27-1.49 6.08-19 10-36.34 4.31-18.63-5.92-11.44-12.99-2.37zm57.84 35.61c10.22.55 12.76 2.26 21.63-1.86 5.82-2.7 10-.14 6 5.16-6.63 8.68-20 10.73-24.79 10.12z"/><path d="M156.48 219s12.38-4 23.33-4.52c7.58-.34 24.13.76 36.48 19.71 2.93 4.5 3.92 13-3.53 7.38-5.29-4-7.45-8.11-10.95-9.86 0 0 0 10.94-4.64 13.7a100.49 100.49 0 0 1-12.58 6.35 21.61 21.61 0 0 1-1.4-2.25s-4.56 2.17-11.92 0Z"/><path d="M187.09 215.35c3.11 2.47 9.6 7.83 13.39 14.06 4.21 6.93 10.45 21.39 5.31 24.45-3.77 2.24-6.64-3.08-6.64-3.08s1.32 6.53-2.53 7.8c-3.5 1.17-5.47-3.08-5.47-3.08s.12 4.1-3.48 4.57c-4.32.57-3.86-8.11-8.74-11.32-1.09-.75 8.16-33.4 8.16-33.4z"/></g><g class="C"><path d="M192.43 232.64c2.54 2.81 6.67 10.67 6.81 18 0 .16-.12.25-.16.1a79.78 79.78 0 0 0-6.72-18.06s.04-.07.07-.04zm-6.87 4.45c1.95 2.65 5.84 10.94 5.73 18.37 0 .17-.14.25-.16.1a85.7 85.7 0 0 0-5.63-18.43s.04-.07.06-.04zm16.27-5.41c3 1.59 4.85 3.59 7.22 6a44.3 44.3 0 0 0 3.66 3.46c1.18 1 2.92 2.43 4.54 1.59a2.71 2.71 0 0 0 1.12-2.53 13 13 0 0 0-1.07-4c0-.05.07-.09.09 0a19.25 19.25 0 0 1 1.31 3.66 4.48 4.48 0 0 1-.2 2.59c-.83 1.7-3 1.52-4.38.74a15 15 0 0 1-2.31-1.73l-2-1.9-3.92-4.11a41.46 41.46 0 0 0-4.11-3.61c-.08-.1-.01-.19.05-.16z"/><path d="M206.39 244.41a100.76 100.76 0 0 0-4.65-12.66c0-.06 0-.1.08-.05 2.07 2.88 4.89 10 5.44 12.26s1.12 5 .68 7.23c-.66 3.39-3 3.59-3.9 3.6a4.47 4.47 0 0 1-2.79-1 9 9 0 0 1-2.13-3c0-.06 0-.11.08 0 .91 1.56 2.6 3.26 4.49 3.37a3.14 3.14 0 0 0 2.32-.72 4.08 4.08 0 0 0 1.07-2.62 18.74 18.74 0 0 0-.69-6.41z"/></g><path d="M133.29 210.62 103 207.88s18.18-25.31 27.67-34.41c9.89-9.49 15.75-8.07 10.6 9.33l-7.98 27.82z" class="B"/><path d="m121.51 183.67-.3.37h.22l.9-.19c-.28-.09-.55-.13-.82-.18zm10.83 26.82a1.85 1.85 0 0 1-.75-.25A1.44 1.44 0 0 1 131 209a1.85 1.85 0 0 0-1.19-1.69 2 2 0 0 0-1-.07l-.9.19c.3.08.6.12.9.18a1.79 1.79 0 0 1 .77.23 1.38 1.38 0 0 1 .68 1.18 1.88 1.88 0 0 0 .58 1.35l2 .18zm5.56-37.67a1.87 1.87 0 0 1-.7.38 1.43 1.43 0 0 1-1.32-.35 1.87 1.87 0 0 0-2-.42 1.8 1.8 0 0 0-.78.65l-.51.77c.28-.16.52-.34.77-.51a1.52 1.52 0 0 1 .71-.35 1.38 1.38 0 0 1 1.31.4 1.82 1.82 0 0 0 2.8-.31l.51-.77c-.3.16-.53.34-.79.51zm-1.18 14.53-.18-.9c-.08.3-.12.6-.18.9a1.94 1.94 0 0 1-.23.77 1.38 1.38 0 0 1-1.18.68 1.81 1.81 0 0 0-1.82 2.14l.19.9c.08-.3.12-.6.18-.9a1.71 1.71 0 0 1 .25-.75 1.42 1.42 0 0 1 1.22-.64 1.8 1.8 0 0 0 1.75-2.2zm-16.65 11a1.59 1.59 0 0 1-.7.35 1.4 1.4 0 0 1-1.32-.4 1.83 1.83 0 0 0-2-.35 1.77 1.77 0 0 0-.76.66 8.56 8.56 0 0 0-.51.77l.77-.51a1.62 1.62 0 0 1 .7-.38 1.35 1.35 0 0 1 1.31.35 1.9 1.9 0 0 0 2 .42 1.8 1.8 0 0 0 .78-.65l.51-.77c-.28.16-.52.34-.78.51z" class="I"/><g class="C"><path d="M131.71 205.22c-.71-.15-1.45-.2-2.17-.28l-2.23-.26-4.52-.46-9.05-.81-2.49-.17c-.88 0-1.76 0-2.63-.07-.05 0-.05.08 0 .09l2.23.34 2.29.26 4.53.43 8.91.72 2.5.15 2.62.14.01-.08zm.15 5.23h1.64l-.12.09 1.4-6 1.59-6c1.12-4 2.3-7.92 3.7-11.8-.8 4.06-1.81 8-2.88 12q-.81 3-1.7 5.95c-.62 2-1.2 3.94-1.89 5.88v.1h-.09q-.84-.07-1.65-.22z"/><path d="M137.46 196.61a14.73 14.73 0 0 1 1.28-3.11 14.22 14.22 0 0 1 1.89-2.74 14 14 0 0 1-1.28 3.11 14.68 14.68 0 0 1-1.89 2.74z"/></g><path d="M155 178.66c-4.23.74-11-6-13.54-11.39-.17-.36 2.13-14.45 2.3-17.29 0-.58 17.55 5.37 17.55 5.37a45.35 45.35 0 0 0-2.36 10.8c-.03.42.13 11.79-3.95 12.51z" class="H"/><path d="M161.3 155.35a45.35 45.35 0 0 0-2.36 10.8v1.36a9.18 9.18 0 0 1-1.74 0c-9.67-.79-12.23-12.88-12.87-17.51l.53.12.58.15.35.09 1.22.35.53.16 2.53.78.38.12 2.44.78.33.11.74.24.76.25 2.34.77.32.11 1.18.39.27.09 1.24.42.21.07.65.22h.12l.23.07z" class="C"/><path d="M146.08 127.58c-3.27 5.75-4 24.3-.55 29.27 5.06 7.19 15.35 10.09 22 3.55 6.41-6.34 7-30.54 2.9-35.25-6.05-6.95-19.51-6.05-24.35 2.43z" class="H"/><g class="C"><path d="M161.34 142.37c0-.05-.1 0-.1.1 0 1.26-.25 2.69-1.4 3.05v.07c1.4-.13 1.68-2.03 1.5-3.22z"/><path d="M160.28 141c-2-.24-2.34 3.78-.49 4s2.21-3.78.49-4zm7.93 2.14s.09.07.08.12c-.14 1.24-.1 2.69 1 3.2v.07c-1.38-.31-1.42-2.23-1.08-3.39z"/><path d="M169.43 141.94c2 0 1.83 4.05 0 4s-1.69-4.02 0-4zM158.85 139a15.24 15.24 0 0 0 1.61-.42 2.67 2.67 0 0 0 1.56-.73.87.87 0 0 0-.05-1 2.14 2.14 0 0 0-2.11-.4 3.15 3.15 0 0 0-1.9 1.19.91.91 0 0 0 .89 1.36zm12.31 1a12.56 12.56 0 0 1-1.56-.55 2.71 2.71 0 0 1-1.49-.86.86.86 0 0 1 .14-1 2.11 2.11 0 0 1 2.13-.21 3.1 3.1 0 0 1 1.79 1.34.9.9 0 0 1-1.01 1.28zm-12.29 13.79c.27.32.54.75 1 .82a3 3 0 0 0 1.36-.2s.08 0 .05.07a1.66 1.66 0 0 1-1.64.54 1.31 1.31 0 0 1-.88-1.18c-.03-.07.07-.09.11-.05zm1.63-3.62a4.25 4.25 0 0 0 2.67 2.13 5.21 5.21 0 0 0 1.52.2.93.93 0 0 0 .29 0h.28a.33.33 0 0 0 .28-.26V152c.11-1 .14-2.42.14-2.42.34.2 2.06 1.16 2.07.66a63.53 63.53 0 0 0-.55-13 .12.12 0 0 0-.23 0c-.26 4 .19 8 0 12.05a7.56 7.56 0 0 0-2-.78c-.14 0 0 2.84-.1 3.26a.18.18 0 0 1 0 .05 5.87 5.87 0 0 1-4.27-1.74c-.06-.08-.17-.01-.1.09z"/><path d="M164.17 152a5.12 5.12 0 0 1-2.15 1.39 2.28 2.28 0 0 1-1.39 0c-1-.35-.92-1.26-.67-2a5.86 5.86 0 0 1 .55-1.16 6.53 6.53 0 0 0 3.66 1.77z"/></g><path d="M162 153.36a2.28 2.28 0 0 1-1.39 0c-1-.35-.92-1.26-.67-2a2.35 2.35 0 0 1 2.06 2z" fill="#ff98b9"/><g class="C"><path d="M144.78 144c3.39.2 4-8.07 4-8.07s5.25-.32 8.6-7.07c0 0 6.12 4.94 11.79 4.59 8.88-.55 10-11.87 7-14.55-4.23-3.81-13 0-13 0s-12-4.94-16.72 3a6.42 6.42 0 0 0-6.68 5.66c-1.06 6.08 2.48 16.31 5.01 16.44z"/><path d="M147.5 136.77a11.5 11.5 0 0 0 6.92-2.77 8.63 8.63 0 0 0 2.88-7.37.12.12 0 0 1 .23 0c.27 3-.25 5.88-2.36 8.08a8 8 0 0 1-7.68 2.34c-.13-.05-.14-.27.01-.28zm-7.69-12.84c2-2 4.62-2 7.19-1.6a.12.12 0 0 1 0 .23c-2.51-.59-5.27.8-6.84 2.72s-1.55 4.49-1.29 6.8a18.16 18.16 0 0 0 5.92 11.61.06.06 0 1 1-.07.09 18.16 18.16 0 0 1-6.72-12.73c-.17-2.42 0-5.31 1.81-7.12zm23.02-4.68a8.53 8.53 0 0 1 5.21-3.09 10.24 10.24 0 0 1 7.12 1.59 5.78 5.78 0 0 1 2.43 5.24 10.21 10.21 0 0 1-3 6.14c0 .05-.12 0-.08-.06a10.18 10.18 0 0 0 2.47-5.62 5.29 5.29 0 0 0-2.55-5c-3.38-2-8.62-2.37-11.39 1-.13.06-.31-.09-.21-.2z"/></g><g class="B"><path d="M158 147.88a5.36 5.36 0 1 1 6.47-5.44 5.36 5.36 0 0 1-5.15 5.55 5.24 5.24 0 0 1-1.32-.11zm2.09-9.77a4.4 4.4 0 0 0-1.15-.1 4.64 4.64 0 1 0 1.15.1zm10.1 10.89c-2-.43-3.38-2.87-3.12-5.65a6.43 6.43 0 0 1 1.48-3.62 3.34 3.34 0 0 1 5.69.53 6.42 6.42 0 0 1 .77 3.83c-.28 2.94-2.28 5.16-4.47 5zm1.56-9.86h-.27a2.84 2.84 0 0 0-2.39 1.1 5.63 5.63 0 0 0-1.3 3.21c-.24 2.55 1 4.76 2.82 4.93s3.45-1.77 3.69-4.31a5.73 5.73 0 0 0-.68-3.41 3 3 0 0 0-1.87-1.55z"/><path d="m164.19 143-.41-.59c.87-.6 2.83-1.34 4 .17l-.57.44c-1.04-1.32-2.94-.02-3.02-.02zm-23.88-.83-.6-.38c.18-.28 1.81-2.75 3.42-2.86s11 1.7 11.38 1.77l-.13.71c-2.72-.52-10-1.84-11.2-1.76s-2.43 1.85-2.87 2.52z"/></g><path d="M146.61 143s-2.86-6.62-5.78-5.71-1.6 9.91 1.25 11.69a3.19 3.19 0 0 0 4.54-.82Z" class="H"/><path d="M141.27 139.83c-.05 0-.07 0 0 .08 2 1.32 2.71 3.56 3.08 5.8a1.77 1.77 0 0 0-2.49-1c-.07 0 0 .13 0 .13a2 2 0 0 1 2 1.11 9.27 9.27 0 0 1 .66 1.92c.06.22.43.19.4-.05v-.06c.61-2.76-.75-7.05-3.65-7.93zm-1.58 28.46 1.5 2.77a30.28 30.28 0 0 0 1.85 2.63 28.68 28.68 0 0 0 4.33 4.48 10.36 10.36 0 0 0 5.88 2.8 5.62 5.62 0 0 0 5.11-2.7c1.46-2.23 1.44-5 1.42-7.65a.08.08 0 1 1 .15 0c.08 2.77.1 5-.92 7.4a6 6 0 0 1-4.4 3.68c-4.73.81-8.62-3.36-11.21-6.75a29.63 29.63 0 0 1-2.09-3.11 23 23 0 0 1-1.77-3.5c-.03-.08.11-.13.15-.05z" class="C"/><path d="M429.27 272.94H70.73v-12.75h358.54z" class="L"/><g class="G"><path d="M429.27 272.95H70.73v-4.98h358.54zM416.41 451.85h5.15l-15-178.9h-13.15l23 178.9z"/></g><path d="m393.41 272.95 1.54 11.97h12.61l-1-11.97h-13.15z" class="C"/><path d="M83.59 451.85h-5.15l15-178.9h13.15l-23 178.9z" class="G"/><path d="m106.59 272.95-1.54 11.97H92.44l1-11.97h13.15z" class="C"/><path d="M183.25 256.69h78.05v3.5h-78.05z" class="E"/><path d="M222.02 256.69h39.29v3.5h-39.29z" class="K"/><path d="M226.25 260.19h76.07l9.94-51.66h-76.07l-9.94 51.66z" class="E"/><path d="M264.63 234.36a4.16 4.16 0 0 0 4.22 4.63 5.16 5.16 0 0 0 5-4.63 4.18 4.18 0 0 0-4.23-4.63 5.14 5.14 0 0 0-4.99 4.63z" class="K"/><path d="M402.3 354.09c-9.14 12.37-18.66 26.72-21 42.23a.21.21 0 0 0 .41.08 93.74 93.74 0 0 1 4-12.42c6-1.65 11.9-3 15.05-9 3.22-6.12 2.81-14.11 2.2-20.78.04-.33-.48-.35-.66-.11z" class="B"/><path d="M385.85 383.87c4.11-9.21 9.37-18.45 16.07-26 0 0 .11 0 .07.08a109.76 109.76 0 0 0-11 17.24c3-3.07 6.33-5.82 9.2-9.08 0-.06.14 0 .09.09-2.84 3.42-5.95 7.13-9.66 9.65q-1.49 2.74-3 5.51c.25-.14.51-.26.76-.39 0 0 .09.05 0 .07-.28.14-.56.29-.85.42l-1.45 2.61c-.08.16-.31-.01-.23-.2zm3.06-3.22a54.47 54.47 0 0 0 7-4.68c.06 0 .14 0 .08.09a37.38 37.38 0 0 1-7 4.77.1.1 0 0 1-.08-.18z" class="C"/><path d="M380.27 394c0 .19.33.18.33 0l.08-15.37c1.31-2.64 4.12-4.1 6.07-6.22a26.94 26.94 0 0 0 3.64-5.07 36.29 36.29 0 0 0 4.23-14.09c.54-5.46-1.53-23.49-3.84-22.87-1.19.33-5.06 9.26-6.08 12.21a85.57 85.57 0 0 0-3.64 15c-1.86 11.99-1.71 24.33-.79 36.41z" class="B"/><path d="M380.23 372c.28-6.46 1.74-13 3.1-19.26 1.47-6.75 3.19-13.11 6.66-19.13a.1.1 0 0 1 .17.1 71.7 71.7 0 0 0-5.35 14.69c.24-.37.52-.71.76-1.06.1-.13.32 0 .23.14a9.66 9.66 0 0 1-1.09 1.53c-1.2 4.83-2.06 9.76-2.79 14.69.05-.06.1-.13.16-.19l.07.06c-.09.16-.19.32-.29.48l-1.06 7.47a35.23 35.23 0 0 0 10.4-13.81c-2.1 5.73-5.41 10.83-10.51 14.3l-.28 2c0 .14-.24.1-.24 0 0-.59 0-1.18.06-1.77-.05-.1-.08-.19 0-.24zm2.1-9.38a103.41 103.41 0 0 0 9.06-15.62c0-.06.14 0 .11.05a50.64 50.64 0 0 1-9 15.7c-.08.09-.24-.03-.17-.13zm4.52-16.87 4.22-7.47c0-.07.13 0 .1.07a38.66 38.66 0 0 1-4.11 7.52.121.121 0 0 1-.21-.12zm-.55 1.08z" class="C"/><path d="M376.81 379.25a52.26 52.26 0 0 1-1.19 10.06l.15 1.1a47.51 47.51 0 0 0 1.8-11.22.32.32 0 0 0 0-.34 74.54 74.54 0 0 0-1.13-15.2c-1.58-9.39-5-18.4-11.58-25.44a.48.48 0 0 0-.73.15c-2.64 6.72-1.72 14.74.53 21.44a39.48 39.48 0 0 0 5.2 10.18c2.26 3.15 5.14 5.82 6.95 9.27z" class="B"/><g class="C"><path d="M365.65 341.35c6.21 10.07 10.52 22 11.05 33.9 0 .21-.34.27-.37.05l-.49-3.18a41 41 0 0 1-7-8.13c0-.05 0-.12.09-.07a84.68 84.68 0 0 0 6.84 7.45q-.66-3.94-1.59-7.77c-.17-.19-.33-.39-.49-.58s.07-.31.18-.18l.15.16a88.53 88.53 0 0 0-3.25-10.3c-1.58-1.88-3.34-3.51-4.49-5.78l.08-.05c.93 1.3 1.82 2.61 2.87 3.81.42.48.88.93 1.31 1.4a78.91 78.91 0 0 0-5.08-10.59.14.14 0 0 1 .19-.14zm1.26 12.42c2 2.7 4.29 5.27 6.15 8.06a.082.082 0 0 1-.13.1 41.21 41.21 0 0 1-6.16-8.08c-.05-.09.08-.16.14-.08z"/><path d="m373.34 362.46.09.08c.06.06 0 .16-.1.1l-.08-.09a.06.06 0 1 1 .09-.09z"/></g><path d="M355.93 360.71a30.85 30.85 0 0 0 6.55 15.36 16.38 16.38 0 0 0 5.31 4.14l7.08 3.38a46.45 46.45 0 0 1 2.51 8.91l.23-.78c-1.53-13.12-10-24.33-20.87-31.53a.53.53 0 0 0-.81.52z" class="B"/><path d="M359.68 364.58c-.08-.07 0-.2.11-.14a44.51 44.51 0 0 1 13.84 17.05c.07.18-.17.33-.27.16l-1.55-2.59c-2.48-.47-4.83-2.21-6.67-3.87-.05 0 0-.12.07-.07a15.84 15.84 0 0 0 3.14 2.2c1 .51 2.1.84 3.15 1.25q-1.38-2.19-2.88-4.21a29 29 0 0 1-7.44-4.19c-.07-.05 0-.17.07-.12a75.42 75.42 0 0 0 6.92 3.7 61.09 61.09 0 0 0-4.89-5.7l-2.51-1.37c-.07 0 0-.15.05-.12a8.6 8.6 0 0 1 1.93.94l-3.07-2.92zm.23 4.53a3.19 3.19 0 0 1 .42.3s0 .08-.05.07a3.83 3.83 0 0 1-.44-.25c-.07-.05 0-.17.07-.12z" class="C"/><path d="M394.56 420.91H364.8l2.41-27.09.52-5.98h23.9l.52 5.98 2.41 27.09z" class="G"/><path d="M392.15 393.82h-24.94l.52-5.98h23.9l.52 5.98z" class="C"/><path d="M366.31 383.66h26.74v5.91h-26.74z" class="G"/><g class="B"><path d="M200.07 56.41c-30.36 0-30.41 43.17 0 43.17s30.4-43.17 0-43.17z"/><use xlink:href="#E"/></g><use xlink:href="#E" class="J"/><use xlink:href="#F" class="B"/><use xlink:href="#F" class="J"/><path d="M446.73 164c-27.33 4.9-20.11 45.4 7.27 40.48s20.11-45.38-7.27-40.48z" class="B"/><path d="M446.73 164c-27.33 4.9-20.11 45.4 7.27 40.48s20.11-45.38-7.27-40.48z" class="J"/><g class="B"><path d="M449.3 163.55c-26.05 4.67-18.83 45.17 7.26 40.48s18.83-45.16-7.26-40.48z"/><use xlink:href="#G"/></g><use xlink:href="#G" class="J"/><use xlink:href="#H" class="B"/><use xlink:href="#H" class="J"/><path d="M425.82 206.13c22.1 4 16.27 36.71-5.87 32.74s-16.26-36.71 5.87-32.74z" class="B"/><path d="M425.82 206.13c22.1 4 16.27 36.71-5.87 32.74s-16.26-36.71 5.87-32.74z" class="J"/><g class="B"><path d="M423.75 205.76c21.06 3.78 15.22 36.52-5.87 32.73s-15.23-36.49 5.87-32.73z"/><use xlink:href="#I"/></g><use xlink:href="#I" class="J"/><use xlink:href="#J" class="B"/><use xlink:href="#J" class="J"/><defs><path id="B" d="m227.66 131.2 89.11-.18 116.32.18-116.32.18z"/><path id="C" d="m227.66 142.12 89.11-.18 116.32.18-116.32.17z"/><path id="D" d="M372.69 77.78a.29.29 0 0 1-.28.29.52.52 0 0 0-.33.1 1 1 0 0 0-.25.26 1.76 1.76 0 0 0-.22.45v1a.29.29 0 0 1-.58 0v-2.1a.29.29 0 0 1 .58 0l.12-.11a1.19 1.19 0 0 1 .68-.21.28.28 0 0 1 .28.32z"/><path id="E" d="M218.53 82c-1.62 7.43-7.78 13.87-18.47 13.87-25.23 0-25.19-35.83 0-35.83h.5c-23.71.43-23.6 34.36.46 34.36 9.82.05 15.66-5.63 17.51-12.4z"/><path id="F" d="M200.25 64.8a.77.77 0 0 1 .79.72v1.21a11.28 11.28 0 0 1 5.84 2.1c.3.21.46.39.46.69a.81.81 0 0 1-.85.75.84.84 0 0 1-.59-.21 9.85 9.85 0 0 0-4.93-2v8.41c5 1 7.09 2.68 7.09 5.62 0 3.19-2.92 5.44-7 5.56V90a.79.79 0 0 1-1.58 0v-2.33a12.94 12.94 0 0 1-7.39-2.91.76.76 0 0 1-.36-.63.82.82 0 0 1 .82-.76.88.88 0 0 1 .59.21 11 11 0 0 0 6.4 2.74v-8.57c-4.92-1-7-2.64-7-5.64s2.89-5.35 6.9-5.44v-1.15a.77.77 0 0 1 .81-.72zm-.73 11.42V68c-3.18.06-5.28 1.8-5.28 4s1.05 3.29 5.28 4.22zm1.48 1.84v8.29c3.28-.06 5.42-1.8 5.42-4.09-.03-2.07-1.18-3.33-5.42-4.2z"/><path id="G" d="M469.45 184.74c-.14 7.22-4.34 14.21-13.51 15.85-21.65 3.89-27.65-29.72-6-33.6l.43-.07c-20.27 4.06-14.46 35.87 6.18 32.16a15 15 0 0 0 12.9-14.34z"/><path id="H" d="M454.5 171.38a.69.69 0 0 1 .6.76l-.13 1.14a9.37 9.37 0 0 1 4.83 2.58.81.81 0 0 1 .32.7.75.75 0 0 1-.83.63.72.72 0 0 1-.49-.26 8.12 8.12 0 0 0-4-2.35l-.94 8c4.22 1.42 5.85 3.25 5.52 6-.36 3-3.14 4.85-6.71 4.55l-.26 2.21a.68.68 0 1 1-1.36-.16l.26-2.24a10.76 10.76 0 0 1-6.07-3.51.72.72 0 0 1 .55-1.27.78.78 0 0 1 .49.26 9.19 9.19 0 0 0 5.24 3.24l.95-8.1c-4.15-1.44-5.73-3.21-5.4-6.06s3.1-4.76 6.58-4.44l.13-1.08a.69.69 0 0 1 .72-.6zm-1.9 10.73.92-7.76c-2.77-.27-4.78 1.16-5 3.21s.48 3.24 4.08 4.55zm1 1.88-.92 7.85c2.85.28 4.89-1.16 5.14-3.32.28-1.96-.57-3.27-4.17-4.52z"/><path id="I" d="M407.46 222.9c.11 5.83 3.5 11.48 10.92 12.81 17.5 3.14 22.35-24 4.87-27.17h-.34c16.39 3.28 11.69 29-5 26a12.15 12.15 0 0 1-10.45-11.64z"/><path id="J" d="M422.05 210.93a.56.56 0 0 1 .44.65l-.16.91a7.54 7.54 0 0 1 3.75 2.35.65.65 0 0 1 .22.58.59.59 0 0 1-.7.46.61.61 0 0 1-.38-.24 6.58 6.58 0 0 0-3.14-2.11l-1.18 6.37c3.32 1.37 4.54 2.94 4.12 5.17-.45 2.41-2.79 3.74-5.65 3.3l-.33 1.78a.56.56 0 0 1-1.1-.2l.34-1.8a8.73 8.73 0 0 1-4.71-3.16.59.59 0 0 1-.16-.53.6.6 0 0 1 .67-.46.56.56 0 0 1 .38.23 7.44 7.44 0 0 0 4.05 2.9l1.21-6.48c-3.27-1.39-4.45-2.91-4-5.18s2.76-3.68 5.55-3.23l.16-.86a.57.57 0 0 1 .62-.45zm-2.11 8.56 1.16-6.22c-2.22-.36-3.92.69-4.23 2.32s.26 2.64 3.07 3.9zm.74 1.57-1.17 6.28c2.29.38 4-.66 4.33-2.39.3-1.57-.32-2.68-3.16-3.89z"/></defs></svg>